<?xml version="1.0" encoding="UTF-8"?>
<svg version="1.1" xmlns="http://www.w3.org/2000/svg" width="1000" height="1000">
<path d="M0 0 C330 0 660 0 1000 0 C1000 330 1000 660 1000 1000 C670 1000 340 1000 0 1000 C0 670 0 340 0 0 Z " fill="#FEFEFE" transform="translate(0,0)"/>
<path d="M0 0 C2.88300294 2.42779195 2.87501684 3.93313534 3.23144531 7.56640625 C3.50541337 12.2108171 3.47717112 16.84932445 3.4375 21.5 C3.43298828 22.51320313 3.42847656 23.52640625 3.42382812 24.5703125 C3.41214593 27.04693827 3.39576582 29.52343657 3.375 32 C4.105979 31.97969727 4.83695801 31.95939453 5.59008789 31.93847656 C13.98130033 31.80213588 20.21332783 32.90294164 27.0625 38 C28.375 40 28.375 40 28.5625 42.0625 C26.69587081 45.10805289 23.6360163 45.90771235 20.375 47 C17.24976057 47.72063789 14.10935097 48.21977339 10.9375 48.6875 C10.11056641 48.81705078 9.28363281 48.94660156 8.43164062 49.08007812 C6.4140302 49.3949653 4.3946769 49.69865138 2.375 50 C2.31030518 50.83805176 2.24561035 51.67610352 2.17895508 52.53955078 C0.53521793 73.66686411 -1.29956312 94.77377404 -3.25 115.875 C-3.36000336 117.07110901 -3.47000671 118.26721802 -3.58334351 119.49957275 C-3.89980059 122.93481122 -4.21891543 126.36979115 -4.5390625 129.8046875 C-4.63376328 130.832453 -4.72846405 131.86021851 -4.82603455 132.91912842 C-5.07931396 135.61428873 -5.34582043 138.30741022 -5.625 141 C-5.69740906 141.71851135 -5.76981812 142.43702271 -5.84442139 143.17730713 C-6.38398896 147.75898896 -6.38398896 147.75898896 -8.625 150 C-14.77243651 151.06911939 -19.38567455 148.6713239 -24.953125 146.19140625 C-28.85809666 142.9886444 -29.73995564 139.8990805 -30.625 135 C-31.08931353 129.97965435 -31.22556967 124.97697566 -31.3125 119.9375 C-31.34574298 118.58134868 -31.38023885 117.22522747 -31.41601562 115.86914062 C-31.4979637 112.57951063 -31.56728962 109.29012945 -31.625 106 C-32.01244385 106.72735352 -32.3998877 107.45470703 -32.79907227 108.20410156 C-39.84699603 121.30446118 -47.61981535 133.73520391 -61.625 140 C-68.73840273 142.08981323 -73.89883305 140.94419624 -80.31640625 137.49609375 C-83.98038442 135.12163751 -86.81621129 132.42282164 -88.23779297 128.16430664 C-88.70498603 125.55291539 -88.75475882 123.08746012 -88.7578125 120.43359375 C-88.75974609 119.32016602 -88.76167969 118.20673828 -88.76367188 117.05957031 C-88.75916016 115.86428711 -88.75464844 114.66900391 -88.75 113.4375 C-88.74806641 112.20999023 -88.74613281 110.98248047 -88.74414062 109.71777344 C-88.68487201 96.80050726 -88.20727557 83.90297894 -87.625 71 C-88.615 71 -89.605 71 -90.625 71 C-98.70234102 87.10767976 -106.30094685 103.22674334 -112.41210938 120.18408203 C-118.95016304 138.32516304 -118.95016304 138.32516304 -123.625 143 C-129.1486616 143.44189293 -132.66082029 142.34670314 -137.625 140 C-138.73875 139.649375 -139.8525 139.29875 -141 138.9375 C-143.625 138 -143.625 138 -144.625 136 C-144.77623831 134.4804236 -144.87381693 132.95527498 -144.94140625 131.4296875 C-144.98330078 130.53378906 -145.02519531 129.63789062 -145.06835938 128.71484375 C-145.10767578 127.77769531 -145.14699219 126.84054687 -145.1875 125.875 C-145.23068359 124.93011719 -145.27386719 123.98523438 -145.31835938 123.01171875 C-145.42459072 120.67462908 -145.52663176 118.3374317 -145.625 116 C-146.55119141 117.37671875 -146.55119141 117.37671875 -147.49609375 118.78125 C-154.66080389 129.24594806 -161.7220703 138.72825871 -174.625 142 C-181.72358993 143.18515588 -188.32012695 141.29678739 -194.625 138 C-202.58763138 132.13279793 -207.62568487 123.25898001 -209.3359375 113.55078125 C-211.47088595 94.71130375 -208.03948519 69.560844 -196.9375 53.6875 C-194.3760094 51.03382208 -192.40735839 50.52622309 -188.75 50.375 C-182.48003502 50.85585446 -177.7427684 52.49991405 -172.625 56.125 C-167.63999162 63.29094955 -171.58598524 74.83254352 -173 82.875 C-173.22171875 84.17308594 -173.4434375 85.47117187 -173.671875 86.80859375 C-175.37857227 96.75763491 -175.37857227 96.75763491 -176.23095703 101.05493164 C-177.40854315 107.01443692 -177.88273562 112.61739779 -177.75 118.6875 C-177.74097656 119.49638672 -177.73195313 120.30527344 -177.72265625 121.13867188 C-177.69953305 123.09258226 -177.66368642 125.0463358 -177.625 127 C-172.7554998 126.64186167 -172.7554998 126.64186167 -168.5078125 124.4609375 C-160.13974881 114.53083525 -153.37982996 103.08657825 -148.625 91 C-148.19445312 89.90816406 -147.76390625 88.81632813 -147.3203125 87.69140625 C-144.30783194 79.41154103 -142.70219884 71.43812527 -141.70068359 62.70141602 C-140.7080147 54.61172583 -140.7080147 54.61172583 -137.625 52 C-134.48046875 50.734375 -134.48046875 50.734375 -130.8125 49.75 C-129.60980469 49.41484375 -128.40710938 49.0796875 -127.16796875 48.734375 C-122.53387152 47.77383445 -119.10054132 47.32638331 -114.75 49.3125 C-111.29447664 53.68272072 -112.07619027 57.61480456 -112.625 63 C-113.20583904 67.530186 -113.84836971 72.05023361 -114.55664062 76.56225586 C-115.26257405 81.09269237 -115.80762821 85.39624732 -115.625 90 C-114.86316406 88.44152344 -114.86316406 88.44152344 -114.0859375 86.8515625 C-100.5345678 59.30218373 -100.5345678 59.30218373 -90.3125 52.9375 C-81.58420126 50.718441 -73.98413344 51.95372144 -65.625 55 C-65.625 55.66 -65.625 56.32 -65.625 57 C-65.026875 57.226875 -64.42875 57.45375 -63.8125 57.6875 C-60.58790687 59.62225588 -59.17582705 62.26173047 -58.05126953 65.81054688 C-57.53459363 68.46435528 -57.49526254 70.95197045 -57.4921875 73.65625 C-57.49089844 74.76226562 -57.48960937 75.86828125 -57.48828125 77.0078125 C-57.49214844 78.16023438 -57.49601563 79.31265625 -57.5 80.5 C-57.49613281 81.62148438 -57.49226562 82.74296875 -57.48828125 83.8984375 C-57.4958187 90.42586888 -57.80061534 96.84508316 -58.40234375 103.34375 C-58.68081693 106.6658862 -58.72372974 109.91686371 -58.6875 113.25 C-58.67847656 114.34828125 -58.66945313 115.4465625 -58.66015625 116.578125 C-58.64855469 117.37734375 -58.63695312 118.1765625 -58.625 119 C-55.74727871 118.67019374 -54.67247103 118.04692643 -52.58203125 115.98046875 C-45.50811261 106.7676239 -41.03430137 96.69986245 -36.625 86 C-36.27091064 85.15397217 -35.91682129 84.30794434 -35.55200195 83.4362793 C-31.0052236 72.38325001 -28.13222404 60.97048739 -27.625 49 C-28.21667969 48.98582031 -28.80835938 48.97164063 -29.41796875 48.95703125 C-33.82114307 48.69126053 -36.03967687 48.47323998 -39.5625 45.625 C-42.82746753 41.46958678 -44.19305226 39.33969121 -43.625 34 C-40.02321412 31.59880941 -37.11633631 31.56228678 -32.9375 31.375 C-32.23560547 31.33632813 -31.53371094 31.29765625 -30.81054688 31.2578125 C-29.08245345 31.1637666 -27.35376325 31.0808032 -25.625 31 C-25.67140625 30.46375 -25.7178125 29.9275 -25.765625 29.375 C-26.0324291 23.58153962 -25.25696557 18.29972976 -23.9375 12.6875 C-23.71465332 11.6655957 -23.71465332 11.6655957 -23.48730469 10.62304688 C-22.27467645 5.79626442 -20.41149133 3.17826753 -16.625 0 C-11.74257679 -2.44121161 -5.07603309 -1.40028499 0 0 Z " fill="#047681" transform="translate(563.625,430)"/>
<path d="M0 0 C2.02357159 1.56008066 2.89600295 2.39427759 3.33293152 4.93913269 C3.14580589 10.41022532 2.64650891 15.75829998 1.86328125 21.17578125 C1.61533862 22.96882329 1.36745726 24.7618738 1.11962891 26.55493164 C0.92207001 27.960186 0.92207001 27.960186 0.72052002 29.39382935 C0.01624157 34.43171165 -0.65675482 39.47378695 -1.33203125 44.515625 C-1.47108887 45.55276138 -1.61014648 46.58989777 -1.75341797 47.65846252 C-2.17022095 50.77213978 -2.58552389 53.88601219 -3 57 C-3.19453766 58.45974243 -3.19453766 58.45974243 -3.39300537 59.94897461 C-10.59315194 100.17435437 -10.59315194 100.17435437 -7 140 C-6.87218214 142.67394964 -6.95608129 145.32095857 -7 148 C-9.51720809 148.70409302 -12.03725819 149.38836056 -14.5625 150.0625 C-15.26697266 150.26166016 -15.97144531 150.46082031 -16.69726562 150.66601562 C-21.42962239 151.90907708 -25.1467045 152.22852843 -30 151 C-35.53132572 144.57170254 -36.32542729 138.13568221 -36 130 C-36.66 130 -37.32 130 -38 130 C-38.185625 130.66 -38.37125 131.32 -38.5625 132 C-42.46799285 140.15059377 -50.57729953 147.61546531 -59 151 C-65.39916507 151.68626143 -71.61778106 151.90210873 -77 148 C-81.12416309 143.99367014 -82.42129888 139.36959489 -84 134 C-84.33 133.01 -84.66 132.02 -85 131 C-85.06802967 129.27204648 -85.08495645 127.54164635 -85.0625 125.8125 C-85.05347656 124.91144531 -85.04445313 124.01039063 -85.03515625 123.08203125 C-85.02355469 122.39496094 -85.01195312 121.70789063 -85 121 C-87.44987617 123.42831035 -89.87405825 125.86408047 -92.21875 128.39453125 C-103.74798227 140.61472778 -118.40387097 148.8204019 -135.38378906 149.34350586 C-144.58231624 149.46593776 -150.7652742 148.89049213 -157.72265625 142.390625 C-166.38009531 133.11631682 -168.74022454 121.82225906 -168.37890625 109.43359375 C-167.26074445 91.47487326 -158.70104784 75.2745568 -145.84375 62.9296875 C-136.59673535 55.19033828 -126.65748782 51.87332991 -114.71875 52.51171875 C-109.54809444 53.19063886 -106.04078512 54.76379599 -102 58 C-101.030625 58.763125 -100.06125 59.52625 -99.0625 60.3125 C-94.58138706 66.15152595 -94.12631398 73.86828387 -95 81 C-96.11215312 85.09078931 -97.47778187 89.04495111 -99 93 C-99.66 93 -100.32 93 -101 93 C-101.20625 93.680625 -101.4125 94.36125 -101.625 95.0625 C-105.66905796 103.70207838 -112.30868966 107.51411779 -121 111 C-124.56281337 111.92655208 -127.88738032 112.13522286 -131.5625 112.125 C-132.95662109 112.12886719 -132.95662109 112.12886719 -134.37890625 112.1328125 C-136.74147476 112.01309964 -138.74030763 111.66993233 -141 111 C-138.29515998 119.28180072 -138.29515998 119.28180072 -132 125 C-124.71154238 127.42948587 -117.3307667 126.44224082 -110.41796875 123.33203125 C-103.71252266 119.63807791 -98.75459024 114.90721817 -94 109 C-93.34 109 -92.68 109 -92 109 C-91.5978125 108.195625 -91.5978125 108.195625 -91.1875 107.375 C-89.79166667 104.58333333 -88.39583333 101.79166667 -87 99 C-86.34 99 -85.68 99 -85 99 C-84.74605469 98.17113281 -84.49210938 97.34226562 -84.23046875 96.48828125 C-78.57650022 80.45972921 -70.02034826 66.65214054 -54.4921875 58.71875 C-48.01394916 55.96914402 -40.08781386 53 -33 53 C-32.97421875 52.20722656 -32.9484375 51.41445313 -32.921875 50.59765625 C-32.50277513 41.97753399 -31.45181512 33.52783657 -30.125 25 C-29.96354492 23.9262915 -29.80208984 22.85258301 -29.63574219 21.74633789 C-28.72352217 16.08481705 -27.74044505 11.06775768 -25 6 C-21.66385446 3.77590298 -18.85576511 3.07455749 -15 2 C-13.66411044 1.44359806 -12.33078934 0.88099253 -11 0.3125 C-7.04135476 -1.20177789 -4.14243533 -1.13713911 0 0 Z " fill="#057681" transform="translate(745,423)"/>
<path d="M0 0 C-0.49410816 8.81847216 -1.91898049 17.19550464 -3.8125 25.8125 C-5.64089408 34.37283106 -7.39356044 42.92354084 -8.8125 51.5625 C-22.67005801 133.67517527 -22.67005801 133.67517527 -40 149 C-40.66 149 -41.32 149 -42 149 C-42.33 149.99 -42.66 150.98 -43 152 C-52.07480066 158.11160045 -61.24884275 158.80195112 -72 158 C-77.61158489 156.89494944 -80.75790944 154.71432657 -84 150 C-88.62511822 138.72013719 -90.59663333 126.64289037 -92.625 114.6875 C-92.91312668 113.04215356 -93.20218742 111.39697041 -93.4921875 109.75195312 C-94.35308225 104.83872443 -95.18233081 99.92058904 -96 95 C-96.1356839 94.18801147 -96.2713678 93.37602295 -96.41116333 92.53942871 C-98.18840849 81.84161354 -99.68693959 71.17734668 -100.6875 60.375 C-100.75003967 59.70342865 -100.81257935 59.0318573 -100.87701416 58.3399353 C-101.74657287 48.83502414 -102.30466908 39.36187653 -102.375 29.8125 C-102.38877686 28.78624512 -102.40255371 27.75999023 -102.41674805 26.70263672 C-102.36115087 17.98648126 -102.36115087 17.98648126 -99 14 C-93.47385284 8.70638873 -87.16103198 6.95037185 -79.625 6.625 C-74.11822246 6.75376921 -69.53620975 7.77466999 -65 11 C-60.83424012 15.86966944 -59.92228937 21.58643778 -59.79125977 27.80029297 C-59.76531235 28.75469269 -59.73936493 29.70909241 -59.71263123 30.69241333 C-59.67118736 32.26392654 -59.67118736 32.26392654 -59.62890625 33.8671875 C-59.06495949 51.13942096 -57.57684375 68.33457435 -56.14996338 85.5524292 C-55.79054208 89.90441095 -55.43757891 94.25691665 -55.08398438 98.609375 C-54.39544944 107.07342604 -53.70006398 115.53689474 -53 124 C-47.68956813 113.73640877 -45.61948016 101.63999273 -43.1875 90.4375 C-27.06038299 16.15342041 -27.06038299 16.15342041 -16 7 C-14 6 -12 5 -10 4 C-9.154375 3.278125 -8.30875 2.55625 -7.4375 1.8125 C-4.59695669 -0.29969887 -3.42851391 -0.16543578 0 0 Z " fill="#037681" transform="translate(354,420)"/>
<path d="M0 0 C-1.98610401 18.43815961 -6.62491004 41.91657901 -20.4375 55.375 C-23.30443399 57.1930557 -24.67486555 57.62907949 -28 57 C-32.12274723 50.81587916 -31.11027832 44.14207322 -29.7890625 37.1484375 C-26.24741809 23.01692564 -19.12450632 10.78802128 -6.9375 2.6171875 C-2.54501748 0 -2.54501748 0 0 0 Z " fill="#F7FCFB" transform="translate(711,498)"/>
<path d="M0 0 C3.31582482 2.557461 5.28710706 4.99432597 6.23046875 9.05078125 C6.77678341 15.93434594 5.75439318 19.9569384 1.29296875 25.42578125 C-3.5836692 28.01338506 -8.37218827 27.76847407 -13.76953125 27.05078125 C-18.6512273 24.78427951 -21.36578879 21.85826618 -23.76953125 17.05078125 C-24.50373673 12.84578625 -24.84650074 10.64089503 -22.44140625 7.08984375 C-16.96849561 1.24714185 -8.00955335 -4.29651537 0 0 Z " fill="#087681" transform="translate(395.76953125,440.94921875)"/>
<path d="M0 0 C1 1 1 1 1.3125 4 C1.19405826 11.22494599 -3.10739029 18.82338656 -8 24 C-13.782847 28.51373358 -19.59975029 31.13681134 -27 31 C-22.88130388 18.25626965 -17.61637561 9.38235412 -7 1 C-4.51588385 -0.24205807 -2.74800896 -0.14092354 0 0 Z " fill="#F4FBFB" transform="translate(632,490)"/>
<path d="M0 0 C0.66 0.33 1.32 0.66 2 1 C1 4 1 4 -2 6 C-1.67 7.65 -1.34 9.3 -1 11 C1.97 11.495 1.97 11.495 5 12 C5 12.66 5 13.32 5 14 C5.66 14 6.32 14 7 14 C8.51406396 17.02812792 8.46731151 20.23285718 8.6875 23.5625 C8.73511475 24.28179687 8.78272949 25.00109375 8.83178711 25.7421875 C9.11651611 31.17959287 8.59077337 35.75980537 7 41 C6.67 41 6.34 41 6 41 C6 32.75 6 24.5 6 16 C5.01 16 4.02 16 3 16 C2.731875 16.53625 2.46375 17.0725 2.1875 17.625 C0.79166667 20.41666667 -0.60416667 23.20833333 -2 26 C-2.66 26 -3.32 26 -4 26 C-4.33 23.03 -4.66 20.06 -5 17 C-5.99 17.66 -6.98 18.32 -8 19 C-8 17.02 -8 15.04 -8 13 C-8.66 12.67 -9.32 12.34 -10 12 C-8.89847594 10.56047403 -7.7936696 9.12345929 -6.6875 7.6875 C-6.07261719 6.88699219 -5.45773437 6.08648437 -4.82421875 5.26171875 C-3.30083693 3.37298626 -1.75565593 1.66922364 0 0 Z " fill="#0F7982" transform="translate(470,485)"/>
<path d="M0 0 C0.33 0 0.66 0 1 0 C1 9.9 1 19.8 1 30 C0.34 29.67 -0.32 29.34 -1 29 C-1.47574438 26.45975996 -1.84007547 23.99948536 -2.125 21.4375 C-2.21136719 20.72658203 -2.29773438 20.01566406 -2.38671875 19.28320312 C-2.59934783 17.52310688 -2.80072697 15.76165836 -3 14 C-4.175625 15.2375 -4.175625 15.2375 -5.375 16.5 C-8 19 -8 19 -10 19 C-10.20625 20.11375 -10.4125 21.2275 -10.625 22.375 C-12 26 -12 26 -15.125 27.4375 C-16.07375 27.623125 -17.0225 27.80875 -18 28 C-17.64808594 27.53851562 -17.29617188 27.07703125 -16.93359375 26.6015625 C-15.27544234 24.41089771 -13.63467407 22.20824392 -12 20 C-11.4121875 19.2059375 -10.824375 18.411875 -10.21875 17.59375 C-6.17140693 11.98427452 -2.89899379 6.27892665 0 0 Z " fill="#E6F9FB" transform="translate(532,534)"/>
<path d="M0 0 C0.33 0 0.66 0 1 0 C1.33 7.92 1.66 15.84 2 24 C1.34 23.67 0.68 23.34 0 23 C-0.4140625 20.71484375 -0.4140625 20.71484375 -0.625 17.9375 C-0.69976562 17.01839844 -0.77453125 16.09929688 -0.8515625 15.15234375 C-0.90054687 14.44207031 -0.94953125 13.73179687 -1 13 C-1.33 13.99 -1.66 14.98 -2 16 C-2.763125 15.835 -3.52625 15.67 -4.3125 15.5 C-7.03596236 14.90854604 -7.03596236 14.90854604 -10 15 C-8.35828571 12.49720508 -6.71189741 9.99772323 -5.0625 7.5 C-4.59392578 6.78457031 -4.12535156 6.06914063 -3.64257812 5.33203125 C-2.45451512 3.53711592 -1.23013479 1.7663474 0 0 Z " fill="#E8F6F3" transform="translate(418,544)"/>
<path d="M0 0 C0 0.99 0 1.98 0 3 C-4.62699286 5.16743046 -9.310636 5.85123098 -14.3125 6.625 C-15.56643555 6.82609375 -15.56643555 6.82609375 -16.84570312 7.03125 C-18.89631318 7.35934761 -20.94805121 7.68038181 -23 8 C-23.33 12.29 -23.66 16.58 -24 21 C-24.33 21 -24.66 21 -25 21 C-25 16.05 -25 11.1 -25 6 C-24.34 6 -23.68 6 -23 6 C-22.67 5.01 -22.34 4.02 -22 3 C-20.82630859 3.01740234 -20.82630859 3.01740234 -19.62890625 3.03515625 C-18.61699219 3.04417969 -17.60507812 3.05320312 -16.5625 3.0625 C-15.04849609 3.07990234 -15.04849609 3.07990234 -13.50390625 3.09765625 C-11.05978933 3.28612676 -11.05978933 3.28612676 -10 2 C-8.32115762 1.6068352 -6.63149955 1.25914548 -4.9375 0.9375 C-4.01839844 0.76089844 -3.09929688 0.58429688 -2.15234375 0.40234375 C-1.44207031 0.26957031 -0.73179687 0.13679688 0 0 Z " fill="#187778" transform="translate(589,472)"/>
<path d="M0 0 C0.33 0.99 0.66 1.98 1 3 C-3.34150077 6.96937213 -3.34150077 6.96937213 -6.6875 7.125 C-7.450625 7.08375 -8.21375 7.0425 -9 7 C-9.66 7.66 -10.32 8.32 -11 9 C-13.74485593 9.14507695 -16.38480543 9.18652423 -19.125 9.125 C-19.87910156 9.11597656 -20.63320313 9.10695313 -21.41015625 9.09765625 C-23.27357254 9.0740687 -25.13682593 9.03819719 -27 9 C-27 10.65 -27 12.3 -27 14 C-29.5654594 11.4345406 -29.54046087 9.52313332 -30 6 C-28.54980469 6.05220703 -28.54980469 6.05220703 -27.0703125 6.10546875 C-17.18792531 6.31094413 -8.36623452 5.85636417 0 0 Z " fill="#DDF8F9" transform="translate(634,528)"/>
<path d="M0 0 C3.44177237 5.37189781 3.07557734 8.76075246 1.8125 14.6875 C1.67263672 15.44611328 1.53277344 16.20472656 1.38867188 16.98632812 C0.69761925 20.52914543 0.02182771 22.96725843 -2 26 C-1.95456055 25.06148193 -1.95456055 25.06148193 -1.90820312 24.10400391 C-1.77164099 21.27769291 -1.63581149 18.45134717 -1.5 15.625 C-1.45230469 14.64015625 -1.40460937 13.6553125 -1.35546875 12.640625 C-1.28779297 11.22910156 -1.28779297 11.22910156 -1.21875 9.7890625 C-1.17685547 8.91975098 -1.13496094 8.05043945 -1.09179688 7.15478516 C-1.03283606 5.77077412 -1 4.38526637 -1 3 C-6.74196162 1.89679904 -10.69812183 1.86799936 -16.0703125 4.23046875 C-19.00944861 5.40255339 -21.86401004 5.67333438 -25 6 C-23.68 5.67 -22.36 5.34 -21 5 C-21 4.34 -21 3.68 -21 3 C-13.84466021 0.39241413 -7.59762024 -0.38999191 0 0 Z " fill="#DBF6F7" transform="translate(748,421)"/>
<path d="M0 0 C0.33 0 0.66 0 1 0 C1.21491496 9.75475128 0.92517159 19.00871642 -0.56640625 28.66796875 C-0.95146744 31.62704254 -1.04658371 34.33878319 -0.9375 37.3125 C-0.958125 38.529375 -0.97875 39.74625 -1 41 C-1.99 41.66 -2.98 42.32 -4 43 C-3.36026873 28.59501647 -1.67008352 14.3158994 0 0 Z " fill="#D6F3F4" transform="translate(741,480)"/>
<path d="M0 0 C2.3134359 0.4746275 4.62573019 0.95482279 6.9375 1.4375 C8.22527344 1.70433594 9.51304687 1.97117187 10.83984375 2.24609375 C14 3 14 3 15 4 C15.09275431 7.08503382 14.85310643 10.16926677 14.6875 13.25 C14.65205078 14.10980469 14.61660156 14.96960938 14.58007812 15.85546875 C14.14187011 24.34493156 14.14187011 24.34493156 12 28 C11.01 28.33 10.02 28.66 9 29 C9.20496094 28.18917969 9.40992188 27.37835938 9.62109375 26.54296875 C11.37086247 19.3513356 12.57053115 12.38982604 13 5 C12.39671875 4.97421875 11.7934375 4.9484375 11.171875 4.921875 C10.37265625 4.86515625 9.5734375 4.8084375 8.75 4.75 C7.56664062 4.68039062 7.56664062 4.68039062 6.359375 4.609375 C3.32101328 3.82463257 2.03158688 2.32980147 0 0 Z " fill="#2D8586" transform="translate(523,474)"/>
<path d="M0 0 C0.95397067 3.40394081 1.05552406 5.56954679 0 9 C-0.48210937 9.47308594 -0.96421875 9.94617188 -1.4609375 10.43359375 C-3.51139671 12.52048243 -4.16017562 14.88409393 -5.109375 17.60546875 C-6.50493261 21.35756003 -8.22562831 24.95445598 -9.9140625 28.58203125 C-11.07622546 31.06168335 -11.07622546 31.06168335 -12 34 C-12.66 34 -13.32 34 -14 34 C-11.91899994 26.04788528 -8.80810897 18.7992224 -5.3125 11.375 C-4.80138672 10.27542969 -4.29027344 9.17585937 -3.76367188 8.04296875 C-2.51509683 5.35911585 -1.26046333 2.67828468 0 0 Z " fill="#D5F3F4" transform="translate(468,509)"/>
<path d="M0 0 C0.33 0 0.66 0 1 0 C1.05406122 1.93719378 1.09282025 3.87481921 1.125 5.8125 C1.14820313 6.89144531 1.17140625 7.97039063 1.1953125 9.08203125 C1 12 1 12 -1 15 C-1.334421 17.77273108 -1.44093414 20.51892246 -1.55859375 23.30859375 C-2.0602166 26.36716138 -3.04836073 27.64904834 -5 30 C-5.33 30.99 -5.66 31.98 -6 33 C-6.66 33 -7.32 33 -8 33 C-7.75765625 32.04222656 -7.5153125 31.08445312 -7.265625 30.09765625 C-4.74290368 20.08798533 -2.33930381 10.05402915 0 0 Z " fill="#267D84" transform="translate(310,513)"/>
<path d="M0 0 C2 3 2 3 1.79296875 5.09375 C1.49326172 6.28484375 1.49326172 6.28484375 1.1875 7.5 C0.09730416 12.22881124 -0.37769354 16.81242528 -0.65625 21.65234375 C-1 24 -1 24 -3 27 C-3.66 27 -4.32 27 -5 27 C-5.33 29.31 -5.66 31.62 -6 34 C-6.66 33.67 -7.32 33.34 -8 33 C-6.61140029 27.26833312 -5.21309252 21.56322938 -3.4375 15.9375 C-1.82085038 10.70466043 -0.87269553 5.40044529 0 0 Z " fill="#207A7F" transform="translate(710,501)"/>
<path d="M0 0 C0.99 0.495 0.99 0.495 2 1 C2.4140625 3.94140625 2.4140625 3.94140625 2.625 7.5625 C2.69976562 8.76003906 2.77453125 9.95757812 2.8515625 11.19140625 C2.90054687 12.11824219 2.94953125 13.04507812 3 14 C3.66 14 4.32 14 5 14 C6.93703061 19.81109182 6.21715636 26.06636277 5 32 C4.67 32 4.34 32 4 32 C3.32584879 27.79283031 2.66200458 23.58409666 2 19.375 C1.71382813 17.59029297 1.71382813 17.59029297 1.421875 15.76953125 C1.24140625 14.61582031 1.0609375 13.46210938 0.875 12.2734375 C0.70742187 11.21560059 0.53984375 10.15776367 0.3671875 9.06787109 C0.00155852 6.0130215 -0.06444822 3.07337438 0 0 Z " fill="#1E7C80" transform="translate(255,490)"/>
<path d="M0 0 C0.33 0 0.66 0 1 0 C0.85815167 3.02106753 0.71164333 6.04179097 0.5625 9.0625 C0.50352539 10.33383789 0.50352539 10.33383789 0.44335938 11.63085938 C-0.23971037 25.23971037 -0.23971037 25.23971037 -3 28 C-6.625 28.125 -6.625 28.125 -10 28 C-9.67 27.34 -9.34 26.68 -9 26 C-7.35 26.33 -5.7 26.66 -4 27 C-4 26.34 -4 25.68 -4 25 C-3.34 25 -2.68 25 -2 25 C-2.01047363 24.31373535 -2.02094727 23.6274707 -2.03173828 22.92041016 C-2.07321874 19.82197711 -2.09930069 16.72360239 -2.125 13.625 C-2.14175781 12.54476562 -2.15851562 11.46453125 -2.17578125 10.3515625 C-2.18222656 9.3203125 -2.18867187 8.2890625 -2.1953125 7.2265625 C-2.20578613 6.27346191 -2.21625977 5.32036133 -2.22705078 4.33837891 C-2 2 -2 2 0 0 Z " fill="#20777F" transform="translate(558,552)"/>
<path d="M0 0 C4.6296487 0.06692002 7.79054742 0.74420644 11.75 3.3125 C11.9375 5.6875 11.9375 5.6875 11.75 8.3125 C10.76 8.9725 9.77 9.6325 8.75 10.3125 C8.75 9.6525 8.75 8.9925 8.75 8.3125 C7.76 8.6425 6.77 8.9725 5.75 9.3125 C5.75 7.3325 5.75 5.3525 5.75 3.3125 C4.533125 3.333125 3.31625 3.35375 2.0625 3.375 C-1.16977322 3.38074116 -4.09934741 3.10016315 -7.25 2.3125 C-4.67767294 -0.25982706 -3.57102308 0.01463534 0 0 Z " fill="#0E757F" transform="translate(554.25,428.6875)"/>
<path d="M0 0 C-2.25915283 1.17141258 -4.11680838 2.02503037 -6.625 2.5625 C-9.43176072 3.90285209 -9.43176072 3.90285209 -10.1875 7.8125 C-10.48703512 9.5369265 -10.75418137 11.26710033 -11 13 C-11.33164151 15.27108103 -11.66503633 17.54190658 -12 19.8125 C-12.144375 20.89144531 -12.28875 21.97039062 -12.4375 23.08203125 C-12.95329931 25.75774019 -13.64072526 27.66091471 -15 30 C-15.33385123 23.87939421 -14.69461647 18.14795143 -13.6875 12.125 C-13.56979248 11.37549072 -13.45208496 10.62598145 -13.33081055 9.85375977 C-12.80956195 6.90535361 -12.36539625 4.50128742 -10.58203125 2.0546875 C-7.14362027 -0.23758648 -3.99116085 -0.08869246 0 0 Z " fill="#D7F6F7" transform="translate(434,480)"/>
<path d="M0 0 C0.99 0.33 1.98 0.66 3 1 C4.73941181 6.33448869 5.31893316 11.3954139 5.4140625 17 C5.43342865 17.7211499 5.4527948 18.4422998 5.4727478 19.18530273 C5.53185263 21.45675353 5.57864775 23.72825695 5.625 26 C5.66324366 27.55340579 5.70229896 29.10679183 5.7421875 30.66015625 C5.83749566 34.43994099 5.92177632 38.21982468 6 42 C3.30446974 39.30446974 3.73416028 37.86894676 3.69140625 34.1015625 C3.66626953 32.89886719 3.64113281 31.69617188 3.61523438 30.45703125 C3.58061629 27.94145034 3.54925986 25.42582201 3.52148438 22.91015625 C3.34691256 14.87985266 2.3204422 7.69564376 0 0 Z " fill="#267880" transform="translate(289,434)"/>
<path d="M0 0 C0.66 0 1.32 0 2 0 C2 9.9 2 19.8 2 30 C2.66 30 3.32 30 4 30 C4.33 30.99 4.66 31.98 5 33 C4.01 33 3.02 33 2 33 C0.09920336 28.98464932 -0.23570807 25.81003409 -0.1953125 21.38671875 C-0.18886719 20.13955078 -0.18242187 18.89238281 -0.17578125 17.60742188 C-0.15902344 16.31384766 -0.14226562 15.02027344 -0.125 13.6875 C-0.11597656 12.37458984 -0.10695313 11.06167969 -0.09765625 9.70898438 C-0.07411797 6.47247087 -0.0412352 3.23632851 0 0 Z " fill="#1D767D" transform="translate(475,528)"/>
<path d="M0 0 C0.33 0 0.66 0 1 0 C0.85758352 2.35441716 0.71115192 4.70847484 0.5625 7.0625 C0.48128906 8.37347656 0.40007813 9.68445313 0.31640625 11.03515625 C0.02101751 14.73663238 -0.43265388 18.33370448 -1 22 C-7.435 23.485 -7.435 23.485 -14 25 C-13.67 23.68 -13.34 22.36 -13 21 C-12.36191406 20.93941406 -11.72382812 20.87882812 -11.06640625 20.81640625 C-9.82697266 20.69072266 -9.82697266 20.69072266 -8.5625 20.5625 C-7.73878906 20.48128906 -6.91507813 20.40007812 -6.06640625 20.31640625 C-4.01337975 20.21069185 -4.01337975 20.21069185 -3 19 C-2.78678272 17.67331468 -2.63002537 16.33740381 -2.5 15 C-2.4175 14.195625 -2.335 13.39125 -2.25 12.5625 C-2.1675 11.716875 -2.085 10.87125 -2 10 C-1.83735957 8.33293562 -1.67089623 6.66623829 -1.5 5 C-1.39171875 3.88625 -1.39171875 3.88625 -1.28125 2.75 C-1 1 -1 1 0 0 Z " fill="#D9F8F9" transform="translate(713,454)"/>
<path d="M0 0 C-4.82646677 3.21764451 -10.19821824 4.36261136 -16 4 C-16.33 5.32 -16.66 6.64 -17 8 C-18.65 7.67 -20.3 7.34 -22 7 C-22 7.66 -22 8.32 -22 9 C-23.65 9 -25.3 9 -27 9 C-22.32932064 3.74735101 -6.51017072 -3.25508536 0 0 Z " fill="#257E81" transform="translate(712,477)"/>
<path d="M0 0 C0.66 0.33 1.32 0.66 2 1 C2 8.59 2 16.18 2 24 C3.98 24 5.96 24 8 24 C8 24.33 8 24.66 8 25 C1.25 25.125 1.25 25.125 -1 24 C-0.67 16.08 -0.34 8.16 0 0 Z " fill="#127076" transform="translate(565,439)"/>
<path d="M0 0 C0.66 0 1.32 0 2 0 C1.855625 0.83660156 1.71125 1.67320312 1.5625 2.53515625 C-0.33267279 14.41946894 -0.67683993 26.05251553 1 38 C0.34 38 -0.32 38 -1 38 C-2.13917218 34.58248347 -2.11338481 31.96512063 -2.09765625 28.36328125 C-2.09443359 27.06455078 -2.09121094 25.76582031 -2.08789062 24.42773438 C-2.07953531 23.05598892 -2.07107037 21.68424413 -2.0625 20.3125 C-2.05748335 18.92903805 -2.05292073 17.54557437 -2.04882812 16.16210938 C-2.03702529 12.77469605 -2.02056019 9.38736967 -2 6 C-1.34 6 -0.68 6 0 6 C0 4.02 0 2.04 0 0 Z " fill="#E1FAFB" transform="translate(355,512)"/>
<path d="M0 0 C0.33 0 0.66 0 1 0 C1.66 5.94 2.32 11.88 3 18 C6.96 18 10.92 18 15 18 C15.33 19.32 15.66 20.64 16 22 C10.72 21.34 5.44 20.68 0 20 C0 13.4 0 6.8 0 0 Z " fill="#D4F4F3" transform="translate(567,442)"/>
<path d="M0 0 C2.97 0.33 5.94 0.66 9 1 C9.41136629 8.87690257 8.436168 15.50298299 6 23 C5.67 23 5.34 23 5 23 C5.96355353 9.3667426 5.96355353 9.3667426 7 3 C5.824375 3.0928125 5.824375 3.0928125 4.625 3.1875 C3.75875 3.125625 2.8925 3.06375 2 3 C1.34 2.01 0.68 1.02 0 0 Z " fill="#E1FBFC" transform="translate(527,478)"/>
<path d="M0 0 C1.54296875 1.83984375 1.54296875 1.83984375 3 4 C2.14928101 7.17086167 0.82905734 9.256414 -1 12 C-1 11.34 -1 10.68 -1 10 C-1.66 10 -2.32 10 -3 10 C-3 10.99 -3 11.98 -3 13 C-4.32 13.33 -5.64 13.66 -7 14 C-7 14.66 -7 15.32 -7 16 C-8.32 15.67 -9.64 15.34 -11 15 C-10.113125 14.38125 -9.22625 13.7625 -8.3125 13.125 C-4.06433262 9.64372269 -2.16652882 4.93700152 0 0 Z " fill="#1D7B7E" transform="translate(699,539)"/>
<path d="M0 0 C0.33 0 0.66 0 1 0 C1 3.63 1 7.26 1 11 C-0.32 11.33 -1.64 11.66 -3 12 C-3.33 14.64 -3.66 17.28 -4 20 C-4.66 20 -5.32 20 -6 20 C-6.33 21.32 -6.66 22.64 -7 24 C-8.24540698 20.48604716 -7.76387905 18.63330973 -6.34765625 15.234375 C-5.98349609 14.34492187 -5.61933594 13.45546875 -5.24414062 12.5390625 C-4.85419922 11.61867188 -4.46425781 10.69828125 -4.0625 9.75 C-3.67642578 8.81414063 -3.29035156 7.87828125 -2.89257812 6.9140625 C-1.93833169 4.60502173 -0.97388338 2.30081138 0 0 Z " fill="#207A7C" transform="translate(420,508)"/>
<path d="M0 0 C3.71599191 -0.20086443 4.77208445 -0.1519437 8 2 C13.98401042 2.5094612 20.12919408 2.30462354 26 1 C22.18027758 4.81972242 17.70231776 5.16386235 12.5 5.3125 C7.97745951 5.23240051 4.81564478 4.61070433 1 2 C0.67 1.34 0.34 0.68 0 0 Z " fill="#DDF9F9" transform="translate(609,545)"/>
<path d="M0 0 C0.66 0 1.32 0 2 0 C1.37693049 3.00041238 0.7515989 6.00032443 0.125 9 C-0.04902344 9.83917969 -0.22304688 10.67835938 -0.40234375 11.54296875 C-1.48775106 16.72880369 -2.68146057 21.8683871 -4 27 C-4.33 27 -4.66 27 -5 27 C-4.91269147 24.26935053 -4.80577876 21.5418381 -4.6875 18.8125 C-4.66494141 18.04357422 -4.64238281 17.27464844 -4.61914062 16.48242188 C-4.39811216 11.80063715 -3.77081753 8.92532484 -1 5 C-0.29329272 2.30745009 -0.29329272 2.30745009 0 0 Z " fill="#CEF0F0" transform="translate(320,466)"/>
<path d="M0 0 C0.66 0 1.32 0 2 0 C0.32073668 4.36778087 -1.63305917 8.58165008 -3.625 12.8125 C-3.94984375 13.50537109 -4.2746875 14.19824219 -4.609375 14.91210938 C-5.40499885 16.60866023 -6.20232699 18.30441165 -7 20 C-7.33 20 -7.66 20 -8 20 C-8.28571429 11.42857143 -8.28571429 11.42857143 -6 8 C-5.01 8.33 -4.02 8.66 -3 9 C-2.814375 7.88625 -2.814375 7.88625 -2.625 6.75 C-2.04513299 4.19858515 -1.26291261 2.2732427 0 0 Z " fill="#D4F5F6" transform="translate(455,502)"/>
<path d="M0 0 C0.33 0 0.66 0 1 0 C1.24124856 7.2374569 0.37305037 13.89963677 -1 21 C-1.16757812 21.90105469 -1.33515625 22.80210937 -1.5078125 23.73046875 C-1.92975709 25.83684295 -2.45496931 27.92207049 -3 30 C-3.66 30.33 -4.32 30.66 -5 31 C-4.42184471 24.2933986 -3.15817691 17.9009014 -1.69921875 11.33203125 C-0.90626777 7.55333191 -0.38389346 3.83893457 0 0 Z " fill="#D7F5F6" transform="translate(344,472)"/>
<path d="M0 0 C-1.38801071 3.35435922 -2.88629 5.11290303 -6 7 C-6.99 7 -7.98 7 -9 7 C-9.625 5.1875 -9.625 5.1875 -10 3 C-8 0 -8 0 -5.5625 -0.75 C-3 -1 -3 -1 0 0 Z " fill="#04717B" transform="translate(706,498)"/>
<path d="M0 0 C0.75410156 0.00322266 1.50820313 0.00644531 2.28515625 0.00976562 C3.06246094 0.01814453 3.83976563 0.02652344 4.640625 0.03515625 C5.43339844 0.03966797 6.22617187 0.04417969 7.04296875 0.04882812 C8.99222008 0.0605706 10.94143238 0.07850479 12.890625 0.09765625 C12.890625 1.08765625 12.890625 2.07765625 12.890625 3.09765625 C13.550625 3.09765625 14.210625 3.09765625 14.890625 3.09765625 C14.890625 6.06765625 14.890625 9.03765625 14.890625 12.09765625 C14.560625 12.09765625 14.230625 12.09765625 13.890625 12.09765625 C13.890625 9.45765625 13.890625 6.81765625 13.890625 4.09765625 C7.71983327 1.42920577 0.42345558 0.83419552 -5.94921875 3.11328125 C-6.66207031 3.438125 -7.37492188 3.76296875 -8.109375 4.09765625 C-8.109375 3.10765625 -8.109375 2.11765625 -8.109375 1.09765625 C-5.33213575 0.3107718 -2.88327423 -0.02184299 0 0 Z " fill="#D2F0F4" transform="translate(552.109375,427.90234375)"/>
<path d="M0 0 C0 0.99 0 1.98 0 3 C-0.99 3.495 -0.99 3.495 -2 4 C-3.03789581 5.64333504 -4.03567924 7.31243867 -5 9 C-7.57404971 12.86107457 -9.61020259 12.94319692 -14 14 C-12.57701102 12.33984619 -11.15344741 10.68024699 -9.7265625 9.0234375 C-8.58425215 7.68471179 -7.45376463 6.3357983 -6.3359375 4.9765625 C-5.81257812 4.34492187 -5.28921875 3.71328125 -4.75 3.0625 C-4.27046875 2.47597656 -3.7909375 1.88945313 -3.296875 1.28515625 C-2 0 -2 0 0 0 Z " fill="#D4F1F3" transform="translate(660,544)"/>
<path d="M0 0 C1.6154589 4.00437994 0.27082159 6.57954739 -1.3125 10.4375 C-1.76238281 11.54996094 -2.21226562 12.66242187 -2.67578125 13.80859375 C-3.11277344 14.86175781 -3.54976562 15.91492188 -4 17 C-4.66859389 18.66589448 -5.3360215 20.33226058 -6 22 C-6.33 22 -6.66 22 -7 22 C-7.44105339 16.70735928 -6.63457832 13.63666939 -4.08984375 9 C-2.50261297 6.08723241 -1.27511456 3.06027496 0 0 Z " fill="#DDF5F6" transform="translate(704,522)"/>
<path d="M0 0 C0.66 0.33 1.32 0.66 2 1 C0.68334847 5.1481602 -0.74248193 6.99757123 -4.375 9.375 C-5.14585937 9.89835938 -5.91671875 10.42171875 -6.7109375 10.9609375 C-9 12 -9 12 -11.2890625 11.6640625 C-11.85367188 11.44492187 -12.41828125 11.22578125 -13 11 C-12.01 10.34 -11.02 9.68 -10 9 C-6.22903699 6.39933585 -3.19303414 3.2656031 0 0 Z " fill="#157375" transform="translate(638,520)"/>
<path d="M0 0 C3 1 3 1 5 4 C5.38101147 6.6785393 5.64628027 9.24666757 5.8125 11.9375 C5.87630859 12.65357422 5.94011719 13.36964844 6.00585938 14.10742188 C6.2274097 17.47436266 6.25902127 19.5642188 4.51171875 22.50390625 C4.01285156 22.99761719 3.51398437 23.49132812 3 24 C3.03480469 23.10539062 3.06960938 22.21078125 3.10546875 21.2890625 C3.27745147 13.60716788 2.78206335 7.18699699 0 0 Z " fill="#E7FEFE" transform="translate(646,484)"/>
<path d="M0 0 C2.6875 -0.25 2.6875 -0.25 5 0 C4.06725891 1.12894876 3.12859878 2.25300876 2.1875 3.375 C1.66542969 4.00148438 1.14335937 4.62796875 0.60546875 5.2734375 C-1.69734292 7.74994056 -3.26382047 8.96575909 -6.6875 9.125 C-7.8321875 9.063125 -7.8321875 9.063125 -9 9 C-8.67 8.01 -8.34 7.02 -8 6 C-7.21625 5.690625 -6.4325 5.38125 -5.625 5.0625 C-2.87033868 4.22294102 -2.87033868 4.22294102 -1.5 1.875 C-1.005 1.25625 -0.51 0.6375 0 0 Z " fill="#DBF2F6" transform="translate(395,549)"/>
<path d="M0 0 C0.33 0 0.66 0 1 0 C1.33 7.92 1.66 15.84 2 24 C1.34 23.67 0.68 23.34 0 23 C-0.31241455 20.28553021 -0.51336592 17.66090639 -0.625 14.9375 C-0.66367187 14.17888672 -0.70234375 13.42027344 -0.7421875 12.63867188 C-0.83673562 10.75952805 -0.91946756 8.87979664 -1 7 C-1.99 7.33 -2.98 7.66 -4 8 C-2.87548273 5.0280615 -1.77706209 2.66559313 0 0 Z " fill="#BDE9EB" transform="translate(418,544)"/>
<path d="M0 0 C0.33 0 0.66 0 1 0 C1.01981934 0.55872803 1.03963867 1.11745605 1.06005859 1.69311523 C1.1565219 4.27497418 1.26569812 6.85615392 1.375 9.4375 C1.4059375 10.31599609 1.436875 11.19449219 1.46875 12.09960938 C1.72806619 17.95583327 2.57644185 23.31155423 4 29 C3.01 29.33 2.02 29.66 1 30 C0.1367399 26.28111134 -0.11721556 22.85703512 -0.09765625 19.04296875 C-0.09443359 17.93115234 -0.09121094 16.81933594 -0.08789062 15.67382812 C-0.07951172 14.52333984 -0.07113281 13.37285156 -0.0625 12.1875 C-0.05798828 11.01767578 -0.05347656 9.84785156 -0.04882812 8.64257812 C-0.0370693 5.76166642 -0.02063426 2.88085956 0 0 Z " fill="#206E7A" transform="translate(533,540)"/>
<path d="M0 0 C0.66 0.66 1.32 1.32 2 2 C1.9765625 4.3828125 1.9765625 4.3828125 1.625 7.125 C1.45871094 8.49011719 1.45871094 8.49011719 1.2890625 9.8828125 C1.14597656 10.93082031 1.14597656 10.93082031 1 12 C-2.09478879 13.03159626 -3.52631393 12.97482862 -6.6875 12.5625 C-7.49574219 12.46066406 -8.30398438 12.35882813 -9.13671875 12.25390625 C-9.75160156 12.17011719 -10.36648438 12.08632813 -11 12 C-11.33 13.32 -11.66 14.64 -12 16 C-12.33 15.01 -12.66 14.02 -13 13 C-13.66 12.34 -14.32 11.68 -15 11 C-10.05 10.67 -5.1 10.34 0 10 C0 6.7 0 3.4 0 0 Z " fill="#278188" transform="translate(538,451)"/>
<path d="M0 0 C2 1 2 1 4 4 C3.0409375 4.37125 3.0409375 4.37125 2.0625 4.75 C-0.18741541 5.81562433 -0.18741541 5.81562433 -0.75 8.125 C-0.8325 8.74375 -0.915 9.3625 -1 10 C-1.66 10 -2.32 10 -3 10 C-2.67 11.98 -2.34 13.96 -2 16 C-2.99 16 -3.98 16 -5 16 C-3.94230769 3.94230769 -3.94230769 3.94230769 0 0 Z " fill="#127879" transform="translate(721,428)"/>
<path d="M0 0 C0.66 0 1.32 0 2 0 C2.27338172 6.06907418 1.46092445 10.77622054 -0.5 16.5 C-0.73847656 17.22703125 -0.97695313 17.9540625 -1.22265625 18.703125 C-1.80460176 20.47223935 -2.40080457 22.23665346 -3 24 C-3.33 24 -3.66 24 -4 24 C-4.3303376 18.82471086 -3.50212406 15.14203397 -1.734375 10.2890625 C-0.64003824 6.87799153 -0.32370337 3.56073706 0 0 Z " fill="#1C7678" transform="translate(332,520)"/>
<path d="M0 0 C0.99 0.33 1.98 0.66 3 1 C2.05447714 4.48277964 1.09146364 7.96047849 0.125 11.4375 C-0.14441406 12.43072266 -0.41382813 13.42394531 -0.69140625 14.44726562 C-0.95566406 15.39150391 -1.21992188 16.33574219 -1.4921875 17.30859375 C-1.73308105 18.18314209 -1.97397461 19.05769043 -2.22216797 19.95874023 C-3 22 -3 22 -5 23 C-4.35731979 19.72853891 -3.71031325 16.45794819 -3.0625 13.1875 C-2.78889648 11.7943457 -2.78889648 11.7943457 -2.50976562 10.37304688 C-2.33251953 9.48037109 -2.15527344 8.58769531 -1.97265625 7.66796875 C-1.81031494 6.84578857 -1.64797363 6.0236084 -1.48071289 5.17651367 C-1 3 -1 3 0 0 Z " fill="#1C7A7D" transform="translate(320,472)"/>
<path d="M0 0 C0.66 0 1.32 0 2 0 C1.4533512 8.18088206 -0.17123868 16.01785939 -2 24 C-2.33 24 -2.66 24 -3 24 C-2.53934842 17.7468998 -2.07012273 11.49420128 -1.5 5.25 C-1.4278125 4.45078125 -1.355625 3.6515625 -1.28125 2.828125 C-1 1 -1 1 0 0 Z " fill="#177479" transform="translate(348,442)"/>
<path d="M0 0 C0.33 0 0.66 0 1 0 C1.05534912 0.70608398 1.11069824 1.41216797 1.16772461 2.13964844 C1.42083142 5.34338537 1.67910904 8.54668511 1.9375 11.75 C2.02451172 12.86117187 2.11152344 13.97234375 2.20117188 15.1171875 C2.28818359 16.18710937 2.37519531 17.25703125 2.46484375 18.359375 C2.543396 19.34389648 2.62194824 20.32841797 2.70288086 21.34277344 C2.96123909 23.6533494 3.3677328 25.76737883 4 28 C3.01 28 2.02 28 1 28 C-0.20514375 18.66013591 -0.09213655 9.39792784 0 0 Z " fill="#32858E" transform="translate(298,520)"/>
<path d="M0 0 C0.33 0 0.66 0 1 0 C0.88570603 1.77155654 0.75816963 3.54226229 0.625 5.3125 C0.55539062 6.29863281 0.48578125 7.28476562 0.4140625 8.30078125 C0 11 0 11 -2 14 C-2.45394552 16.27912938 -2.45394552 16.27912938 -2.625 18.6875 C-2.69976563 19.49574219 -2.77453125 20.30398438 -2.8515625 21.13671875 C-2.90054688 21.75160156 -2.94953125 22.36648438 -3 23 C-3.66 23 -4.32 23 -5 23 C-3.25740319 7.25512528 -3.25740319 7.25512528 0 0 Z " fill="#CEEFF0" transform="translate(685,524)"/>
<path d="M0 0 C3 3 3 3 3.15698242 5.36010742 C3.05748291 6.26607666 2.9579834 7.1720459 2.85546875 8.10546875 C2.70561523 9.57983398 2.70561523 9.57983398 2.55273438 11.08398438 C2.43220703 12.10814453 2.31167969 13.13230469 2.1875 14.1875 C2.07857422 15.22326172 1.96964844 16.25902344 1.85742188 17.32617188 C1.58609893 19.88604485 1.29976097 22.44332698 1 25 C0.67 25 0.34 25 0 25 C0 16.75 0 8.5 0 0 Z " fill="#257D83" transform="translate(737,490)"/>
<path d="M0 0 C-2 2 -2 2 -4.6875 3.3125 C-8.45244777 5.23049226 -11.60662004 7.48889883 -15 10 C-14.6875 7.125 -14.6875 7.125 -14 4 C-9.49667324 0.99778216 -5.42232421 -0.31896025 0 0 Z " fill="#22787C" transform="translate(632,488)"/>
<path d="M0 0 C0.33 0 0.66 0 1 0 C1 2.64 1 5.28 1 8 C-0.04800781 8.13277344 -1.09601562 8.26554687 -2.17578125 8.40234375 C-3.55470778 8.58057235 -4.93361293 8.75896641 -6.3125 8.9375 C-7.00279297 9.02451172 -7.69308594 9.11152344 -8.40429688 9.20117188 C-11.40142288 9.59210135 -14.12450119 10.0415004 -17 11 C-17 10.01 -17 9.02 -17 8 C-12.05 7.34 -7.1 6.68 -2 6 C-1.34 4.02 -0.68 2.04 0 0 Z " fill="#DDFAFB" transform="translate(537,453)"/>
<path d="M0 0 C0.33 0 0.66 0 1 0 C1.65895285 8.96908052 -0.22099564 16.50170541 -3 25 C-4.07138687 21.70239806 -3.90279404 19.39570374 -3.22265625 16.015625 C-2.94711914 14.61376953 -2.94711914 14.61376953 -2.66601562 13.18359375 C-2.46685547 12.21550781 -2.26769531 11.24742187 -2.0625 10.25 C-1.86720703 9.26644531 -1.67191406 8.28289062 -1.47070312 7.26953125 C-0.98809442 4.84471679 -0.49761141 2.42177227 0 0 Z " fill="#C7EEF1" transform="translate(349,447)"/>
<path d="M0 0 C0.66 0 1.32 0 2 0 C1.82984375 0.55945313 1.6596875 1.11890625 1.484375 1.6953125 C-0.75607324 9.10785935 -2.88542553 16.55068688 -5 24 C-5.33 24 -5.66 24 -6 24 C-5.68010101 20.99839457 -5.34221513 17.99913537 -5 15 C-4.9278125 14.30003906 -4.855625 13.60007812 -4.78125 12.87890625 C-4.59078364 11.24293624 -4.30352693 9.61881028 -4 8 C-3.34 7.67 -2.68 7.34 -2 7 C-2 5.35 -2 3.7 -2 2 C-1.34 2 -0.68 2 0 2 C0 1.34 0 0.68 0 0 Z " fill="#D7F5F7" transform="translate(328,440)"/>
<path d="M0 0 C1.2065625 0.2475 1.2065625 0.2475 2.4375 0.5 C8.33981925 1.32839568 14.18891148 1.49963575 20 0 C19.67 0.66 19.34 1.32 19 2 C18.01 2 17.02 2 16 2 C16 2.66 16 3.32 16 4 C14.27119018 4.05449838 12.54187288 4.09301688 10.8125 4.125 C9.84957031 4.14820313 8.88664062 4.17140625 7.89453125 4.1953125 C4.87187222 3.9913544 2.73230015 3.26874632 0 2 C0 1.34 0 0.68 0 0 Z " fill="#D7F2F4" transform="translate(374,570)"/>
<path d="M0 0 C0.99 0.33 1.98 0.66 3 1 C4.9989039 1.06940639 7.00001314 1.08455868 9 1.0625 C10.051875 1.05347656 11.10375 1.04445313 12.1875 1.03515625 C13.115625 1.02355469 14.04375 1.01195312 15 1 C15.99 1 16.98 1 18 1 C17.67 1.99 17.34 2.98 17 4 C13.33830138 5.61114739 8.92667996 5.45098502 5 5 C2 3.625 2 3.625 0 2 C0 1.34 0 0.68 0 0 Z " fill="#D3F0F1" transform="translate(379,466)"/>
<path d="M0 0 C0.33 0.99 0.66 1.98 1 3 C1.99 3 2.98 3 4 3 C4.33 2.34 4.66 1.68 5 1 C4.67 5.95 4.34 10.9 4 16 C0.78235549 11.17353323 -0.36261136 5.80178176 0 0 Z " fill="#197880" transform="translate(265,549)"/>
<path d="M0 0 C0.33 0.99 0.66 1.98 1 3 C-3.32463546 6.95395242 -3.32463546 6.95395242 -6.75 7.1875 C-7.86375 7.0946875 -7.86375 7.0946875 -9 7 C-9.33 7.33 -9.66 7.66 -10 8 C-11.66617115 8.04063832 -13.33388095 8.042721 -15 8 C-15 7.34 -15 6.68 -15 6 C-14.33613281 5.81824219 -13.67226563 5.63648438 -12.98828125 5.44921875 C-8.26546387 4.10476709 -4.07164661 2.85015263 0 0 Z " fill="#C7EBED" transform="translate(634,528)"/>
<path d="M0 0 C0.66 0 1.32 0 2 0 C4.75774601 5.51549202 3.20879162 13.03720318 1.5 18.6875 C1.01534507 20.13024594 0.52112032 21.57002103 0 23 C-0.33 23 -0.66 23 -1 23 C-0.9278125 22.34515625 -0.855625 21.6903125 -0.78125 21.015625 C-0.06648747 13.98712682 0.11091604 7.06165482 0 0 Z " fill="#CCEFF0" transform="translate(450,481)"/>
<path d="M0 0 C1.45606519 4.52092968 0.27032841 7.51648796 -1 12 C-1.66 12 -2.32 12 -3 12 C-3.66 13.65 -4.32 15.3 -5 17 C-5.66 17 -6.32 17 -7 17 C-5.24009216 11.08030998 -2.60305395 5.58365008 0 0 Z " fill="#237C84" transform="translate(526,518)"/>
<path d="M0 0 C0.99 0 1.98 0 3 0 C2.855625 0.51304687 2.71125 1.02609375 2.5625 1.5546875 C0.44080722 10.30667023 0.82471511 19.06047041 1 28 C0.34 27.67 -0.32 27.34 -1 27 C-1.18451025 7.99544419 -1.18451025 7.99544419 0 0 Z " fill="#DDF8F8" transform="translate(577,518)"/>
<path d="M0 0 C1.27944591 3.83833773 0.44683621 4.70159232 -1.3125 8.25 C-3.33560774 12.48166702 -4.88812627 16.45142564 -6 21 C-6.33 21 -6.66 21 -7 21 C-6.88610125 19.20759337 -6.75852313 17.41605165 -6.625 15.625 C-6.55539062 14.62726562 -6.48578125 13.62953125 -6.4140625 12.6015625 C-6 10 -6 10 -4 8 C-3.28591666 6.01643517 -2.61382258 4.01684563 -2 2 C-1.34 2 -0.68 2 0 2 C0 1.34 0 0.68 0 0 Z " fill="#1A757B" transform="translate(688,515)"/>
<path d="M0 0 C0.66 0 1.32 0 2 0 C0.46527032 4.72224516 -1.23945126 9.35855331 -3 14 C-3.99 14 -4.98 14 -6 14 C-5.25 8.25 -5.25 8.25 -3 6 C-2.3574765 3.93125966 -2.3574765 3.93125966 -2 2 C-1.34 2 -0.68 2 0 2 C0 1.34 0 0.68 0 0 Z " fill="#1F7581" transform="translate(609,506)"/>
<path d="M0 0 C0.66 0.33 1.32 0.66 2 1 C1.34 2.98 0.68 4.96 0 7 C0.66 7.33 1.32 7.66 2 8 C1.67 8.66 1.34 9.32 1 10 C0.443125 9.649375 -0.11375 9.29875 -0.6875 8.9375 C-3.53886783 7.78154007 -5.08517222 8.19032562 -8 9 C-6.4169423 4.7257442 -3.49431596 2.73468206 0 0 Z " fill="#218187" transform="translate(683,486)"/>
<path d="M0 0 C0.66 0.33 1.32 0.66 2 1 C2.66666667 3 3.33333333 5 4 7 C4.66 7.33 5.32 7.66 6 8 C5.91284983 9.93833996 5.80467036 11.8757429 5.6875 13.8125 C5.62949219 14.89144531 5.57148438 15.97039062 5.51171875 17.08203125 C4.96931493 20.17497517 4.44710376 21.13022903 2 23 C2.165 22.34 2.33 21.68 2.5 21 C3.90070141 12.59579151 2.70586792 8.05880187 -2 1 C-1.34 0.67 -0.68 0.34 0 0 Z " fill="#D6F1F3" transform="translate(398,440)"/>
<path d="M0 0 C0.33 0.66 0.66 1.32 1 2 C0.67 2.66 0.34 3.32 0 4 C-0.99 4.33 -1.98 4.66 -3 5 C-4.45644757 7.08812458 -4.45644757 7.08812458 -5.6875 9.5625 C-6.12449219 10.38878906 -6.56148437 11.21507812 -7.01171875 12.06640625 C-7.50091797 13.02353516 -7.50091797 13.02353516 -8 14 C-9.66663122 10.66673755 -8.15821488 7.71577629 -7.1015625 4.2890625 C-6 2 -6 2 -2.8125 0.375 C-1.884375 0.25125 -0.95625 0.1275 0 0 Z " fill="#1C7E84" transform="translate(535,531)"/>
<path d="M0 0 C7.59762024 -0.38999191 13.84466021 0.39241413 21 3 C21 3.33 21 3.66 21 4 C18.62412376 3.88513575 16.24984829 3.75841844 13.875 3.625 C12.87726563 3.57859375 12.87726563 3.57859375 11.859375 3.53125 C7.60178738 3.28080367 3.97914217 2.52471803 0 1 C0 0.67 0 0.34 0 0 Z " fill="#398890" transform="translate(477,482)"/>
<path d="M0 0 C0.33 0 0.66 0 1 0 C0.88562349 2.72998676 0.75888594 5.4584582 0.625 8.1875 C0.5940625 8.95642578 0.563125 9.72535156 0.53125 10.51757812 C0.31760566 14.66583901 0.10600295 18.3109132 -2 22 C-2.99 22.33 -3.98 22.66 -5 23 C-4.35541903 19.91640349 -3.70911557 16.83317045 -3.0625 13.75 C-2.88009766 12.87730469 -2.69769531 12.00460937 -2.50976562 11.10546875 C-2.33251953 10.26113281 -2.15527344 9.41679687 -1.97265625 8.546875 C-1.72914429 7.38430176 -1.72914429 7.38430176 -1.48071289 6.19824219 C-1.02638067 4.12063563 -0.5273492 2.06015019 0 0 Z " fill="#257A7F" transform="translate(537,480)"/>
<path d="M0 0 C0.66 0.33 1.32 0.66 2 1 C1.21149464 3.25115271 0.41932463 5.50090104 -0.375 7.75 C-0.59671875 8.38421875 -0.8184375 9.0184375 -1.046875 9.671875 C-2.18719302 12.89159648 -3.37470165 15.99243857 -5 19 C-5.66 19 -6.32 19 -7 19 C-6.67 17.35 -6.34 15.7 -6 14 C-5.34 14 -4.68 14 -4 14 C-3.87625 13.154375 -3.7525 12.30875 -3.625 11.4375 C-1.88888889 1.88888889 -1.88888889 1.88888889 0 0 Z " fill="#26787E" transform="translate(454,537)"/>
<path d="M0 0 C0.66 0.33 1.32 0.66 2 1 C0.87994369 4.36016893 -0.37211797 5.69064913 -3 8 C-3.66 8 -4.32 8 -5 8 C-5.33 9.32 -5.66 10.64 -6 12 C-7.32 12.33 -8.64 12.66 -10 13 C-3.84965831 3.40546697 -3.84965831 3.40546697 0 0 Z " fill="#287D85" transform="translate(470,485)"/>
<path d="M0 0 C0.845625 0.61875 1.69125 1.2375 2.5625 1.875 C8.34869551 5.26028451 15.45059978 5.35938943 22 6 C22 6.33 22 6.66 22 7 C17.38 7.33 12.76 7.66 8 8 C8 7.34 8 6.68 8 6 C5.69 5.34 3.38 4.68 1 4 C0.67 2.68 0.34 1.36 0 0 Z " fill="#C4E8ED" transform="translate(271,572)"/>
<path d="M0 0 C-2.94924939 1.62106548 -5.63806994 2.48443268 -8.9375 3.125 C-10.18853516 3.37636719 -10.18853516 3.37636719 -11.46484375 3.6328125 C-14.01458019 4.00211177 -16.42759067 4.06442528 -19 4 C-19 3.34 -19 2.68 -19 2 C-12.56986533 0.26044666 -6.65050424 -0.24991456 0 0 Z " fill="#298082" transform="translate(736,571)"/>
<path d="M0 0 C0.66 0 1.32 0 2 0 C2 0.99 2 1.98 2 3 C2.66 3 3.32 3 4 3 C4.33 2.01 4.66 1.02 5 0 C5.33 0.66 5.66 1.32 6 2 C6.66 1.67 7.32 1.34 8 1 C7.34 2.98 6.68 4.96 6 7 C4.35 7 2.7 7 1 7 C0 4 0 4 0 0 Z " fill="#13808C" transform="translate(440,557)"/>
<path d="M0 0 C0.33 0.99 0.66 1.98 1 3 C-0.58133449 6.16266898 -2.38114512 8.63055987 -5 11 C-5.99 10.67 -6.98 10.34 -8 10 C-8 9.34 -8 8.68 -8 8 C-6.52295788 6.74772516 -5.04172601 5.49833478 -3.5078125 4.31640625 C-1.73237056 2.88235909 -1.73237056 2.88235909 0 0 Z " fill="#DAF1F5" transform="translate(320,561)"/>
<path d="M0 0 C2.97 0.495 2.97 0.495 6 1 C6 2.98 6 4.96 6 7 C4.68 6.67 3.36 6.34 2 6 C2 5.34 2 4.68 2 4 C1.34 4 0.68 4 0 4 C-0.33 4.66 -0.66 5.32 -1 6 C-1.33 5.01 -1.66 4.02 -2 3 C-1.34 2.01 -0.68 1.02 0 0 Z " fill="#097B88" transform="translate(665,560)"/>
<path d="M0 0 C0.33 0 0.66 0 1 0 C1.32301293 6.78327159 -0.60296824 12.15710538 -4 18 C-4.99 18.33 -5.98 18.66 -7 19 C-6.72414063 18.32582031 -6.44828125 17.65164063 -6.1640625 16.95703125 C-4.82618085 13.5584527 -3.59731761 10.12928907 -2.375 6.6875 C-2.14554687 6.04232422 -1.91609375 5.39714844 -1.6796875 4.73242188 C-1.1189182 3.15525821 -0.55933709 1.57767216 0 0 Z " fill="#CCEDEF" transform="translate(330,538)"/>
<path d="M0 0 C0.33 0 0.66 0 1 0 C1 6.93 1 13.86 1 21 C0.67 21 0.34 21 0 21 C0 16.05 0 11.1 0 6 C-0.66 6 -1.32 6 -2 6 C-2 6.99 -2 7.98 -2 9 C-2.66 9 -3.32 9 -4 9 C-2.80100302 5.9168649 -1.52299523 2.93720508 0 0 Z " fill="#ABDCE3" transform="translate(532,534)"/>
<path d="M0 0 C0.33 0 0.66 0 1 0 C1.34776793 5.30346096 1.34776793 5.30346096 1 8 C-0.8125 9.8125 -0.8125 9.8125 -3 11 C-4.01801357 11.98165594 -5.0246803 12.97591432 -6 14 C-5.67 11.69 -5.34 9.38 -5 7 C-4.34 7 -3.68 7 -3 7 C-2.01 4.69 -1.02 2.38 0 0 Z " fill="#187A85" transform="translate(451,513)"/>
<path d="M0 0 C0.33 0 0.66 0 1 0 C1.31199371 4.57590769 0.91247585 6.50502897 -2 10 C-2.70514846 12.14733927 -2.70514846 12.14733927 -3 14 C-2.34 14.33 -1.68 14.66 -1 15 C-2.65 15 -4.3 15 -6 15 C-5.37806106 13.24890978 -4.75232002 11.49916969 -4.125 9.75 C-3.77695312 8.77546875 -3.42890625 7.8009375 -3.0703125 6.796875 C-2.16725355 4.43705673 -1.17921582 2.23094884 0 0 Z " fill="#CCF0F3" transform="translate(611,506)"/>
<path d="M0 0 C3.3 0 6.6 0 10 0 C9.67 0.99 9.34 1.98 9 3 C9.33 3.66 9.66 4.32 10 5 C8.35 5 6.7 5 5 5 C4.67 4.01 4.34 3.02 4 2 C3.01 2.33 2.02 2.66 1 3 C0.67 2.01 0.34 1.02 0 0 Z " fill="#107982" transform="translate(683,555)"/>
<path d="M0 0 C0.99 0.33 1.98 0.66 3 1 C2.38531118 4.99547736 0.34540624 7.77506642 -2 11 C-2.33 11 -2.66 11 -3 11 C-3.32613618 6.32538149 -2.70582788 3.83325617 0 0 Z " fill="#DAF4F6" transform="translate(516,532)"/>
<path d="M0 0 C1.11346788 2.80033839 1.03510273 3.90143703 0.00390625 6.796875 C-0.47175781 7.77140625 -0.94742188 8.7459375 -1.4375 9.75 C-1.91058594 10.73484375 -2.38367188 11.7196875 -2.87109375 12.734375 C-3.24363281 13.48203125 -3.61617187 14.2296875 -4 15 C-6 12 -6 12 -5.609375 9.9921875 C-5.32578125 9.29351563 -5.0421875 8.59484375 -4.75 7.875 C-4.34007812 6.81925781 -4.34007812 6.81925781 -3.921875 5.7421875 C-3 4 -3 4 -1 3 C-0.67 2.01 -0.34 1.02 0 0 Z " fill="#DDF7F9" transform="translate(527,512)"/>
<path d="M0 0 C2.475 0.99 2.475 0.99 5 2 C5 3.65 5 5.3 5 7 C4.34 6.01 3.68 5.02 3 4 C2.34 4.66 1.68 5.32 1 6 C-1.125 5.625 -1.125 5.625 -3 5 C-2.01 3.35 -1.02 1.7 0 0 Z " fill="#0F7985" transform="translate(674,495)"/>
<path d="M0 0 C1.1484375 1.734375 1.1484375 1.734375 2 4 C1.1015625 6.140625 1.1015625 6.140625 -0.375 8.25 C-0.85710937 8.95640625 -1.33921875 9.6628125 -1.8359375 10.390625 C-2.22007812 10.92171875 -2.60421875 11.4528125 -3 12 C-3.68707555 9.50935112 -4 7.62113708 -4 5 C-2.5625 3.4375 -2.5625 3.4375 -1 2 C-0.67 1.34 -0.34 0.68 0 0 Z " fill="#E9F7F9" transform="translate(404,536)"/>
<path d="M0 0 C4.29 0.33 8.58 0.66 13 1 C13 1.33 13 1.66 13 2 C9.04 2 5.08 2 1 2 C1 4.64 1 7.28 1 10 C0.67 9.01 0.34 8.02 0 7 C-0.66 7 -1.32 7 -2 7 C-1.34 4.69 -0.68 2.38 0 0 Z " fill="#0B6F75" transform="translate(603,532)"/>
<path d="M0 0 C0.66 1.32 1.32 2.64 2 4 C1.01 4.495 1.01 4.495 0 5 C-0.69227032 7.80980673 -0.69227032 7.80980673 -1.125 11.0625 C-1.29257812 12.16722656 -1.46015625 13.27195312 -1.6328125 14.41015625 C-1.75398438 15.26480469 -1.87515625 16.11945313 -2 17 C-2.33 17 -2.66 17 -3 17 C-2.88597936 14.72858891 -2.75841495 12.45785448 -2.625 10.1875 C-2.55539062 8.92292969 -2.48578125 7.65835937 -2.4140625 6.35546875 C-2 3 -2 3 0 0 Z " fill="#348286" transform="translate(425,483)"/>
<path d="M0 0 C2.4375 0.1875 2.4375 0.1875 3.4375 1.1875 C3.79647436 7.64903846 3.79647436 7.64903846 1.4375 11.1875 C1.1075 8.5475 0.7775 5.9075 0.4375 3.1875 C-1.2125 2.8575 -2.8625 2.5275 -4.5625 2.1875 C-2.5625 0.1875 -2.5625 0.1875 0 0 Z " fill="#C5EDF0" transform="translate(629.5625,489.8125)"/>
<path d="M0 0 C0.99 0.33 1.98 0.66 3 1 C2.06409496 2.1055189 1.12620142 3.20935453 0.1875 4.3125 C-0.33457031 4.92738281 -0.85664063 5.54226563 -1.39453125 6.17578125 C-2.87172469 7.85424679 -4.40039131 9.43882034 -6 11 C-5.62671065 5.64951939 -4.0042343 3.49087093 0 0 Z " fill="#D8F4F6" transform="translate(466,486)"/>
<path d="M0 0 C2.31 0.33 4.62 0.66 7 1 C6.67 1.99 6.34 2.98 6 4 C7.32 4.33 8.64 4.66 10 5 C10 5.66 10 6.32 10 7 C6.12697862 5.85569823 2.99736561 4.76679902 0 2 C0 1.34 0 0.68 0 0 Z " fill="#2D7A87" transform="translate(480,563)"/>
<path d="M0 0 C0.33 1.32 0.66 2.64 1 4 C4.28696233 4.79953138 5.71023192 5.09658936 9 4 C9 4.99 9 5.98 9 7 C6.69 7.33 4.38 7.66 2 8 C-0.1519437 4.77208445 -0.20086443 3.71599191 0 0 Z " fill="#DBFAFA" transform="translate(681,547)"/>
<path d="M0 0 C0.33 0 0.66 0 1 0 C1.59720137 5.82271337 -0.471757 9.9209404 -3 15 C-3.66 15 -4.32 15 -5 15 C-1.92482916 4.44191344 -1.92482916 4.44191344 0 0 Z " fill="#C7E8E7" transform="translate(459,528)"/>
<path d="M0 0 C1 2 1 2 0.1875 5.0625 C-1 8 -1 8 -3 9 C-3.33 9.99 -3.66 10.98 -4 12 C-4.66 12 -5.32 12 -6 12 C-4.68139111 7.38486888 -2.78644563 3.90102388 0 0 Z " fill="#CAEFF1" transform="translate(692,512)"/>
<path d="M0 0 C0.66 0.66 1.32 1.32 2 2 C1.828125 4.09375 1.828125 4.09375 1.25 6.5 C0.97929688 7.69109375 0.97929688 7.69109375 0.703125 8.90625 C0 11 0 11 -2 13 C-2.19294408 8.17639811 -1.75747614 4.50353262 0 0 Z " fill="#2C8186" transform="translate(647,503)"/>
<path d="M0 0 C0 0.99 0 1.98 0 3 C-4.07369424 5.03684712 -6.58937864 5.0257259 -11 4 C-10.67 3.34 -10.34 2.68 -10 2 C-7.71484375 1.3671875 -7.71484375 1.3671875 -4.9375 0.875 C-4.01839844 0.70742188 -3.09929688 0.53984375 -2.15234375 0.3671875 C-1.44207031 0.24601562 -0.73179687 0.12484375 0 0 Z " fill="#197277" transform="translate(589,472)"/>
<path d="M0 0 C0 0.99 0 1.98 0 3 C-3.56045177 4.18681726 -6.43808337 4.09689832 -10.1875 4.0625 C-11.45980469 4.05347656 -12.73210938 4.04445313 -14.04296875 4.03515625 C-15.50669922 4.01775391 -15.50669922 4.01775391 -17 4 C-17 3.67 -17 3.34 -17 3 C-16.25234375 2.95101562 -15.5046875 2.90203125 -14.734375 2.8515625 C-13.74953125 2.77679687 -12.7646875 2.70203125 -11.75 2.625 C-10.28820312 2.52058594 -10.28820312 2.52058594 -8.796875 2.4140625 C-5.60512397 1.9415407 -3.13732834 0 0 0 Z " fill="#CBEBEC" transform="translate(692,571)"/>
<path d="M0 0 C0.33 0.99 0.66 1.98 1 3 C0.67 3.66 0.34 4.32 0 5 C-0.99 5 -1.98 5 -3 5 C-3.66 6.32 -4.32 7.64 -5 9 C-6.32 8.67 -7.64 8.34 -9 8 C-6.03 5.36 -3.06 2.72 0 0 Z " fill="#CEEDEE" transform="translate(701,562)"/>
<path d="M0 0 C0.99 0 1.98 0 3 0 C4.38123963 1.96722008 5.71488126 3.96868328 7 6 C7.66 6.33 8.32 6.66 9 7 C9 7.66 9 8.32 9 9 C9.66 9 10.32 9 11 9 C10.67 9.66 10.34 10.32 10 11 C8.70145279 9.92492371 7.41141639 8.83956264 6.125 7.75 C5.40570313 7.14671875 4.68640625 6.5434375 3.9453125 5.921875 C2.02947882 4.02912366 1.03550955 2.46342273 0 0 Z " fill="#1D7780" transform="translate(361,558)"/>
<path d="M0 0 C0.99 0 1.98 0 3 0 C2.45388137 3.82283043 0.76181385 5.41079952 -2 8 C-2.33 8.66 -2.66 9.32 -3 10 C-3.66 10 -4.32 10 -5 10 C-4.1875 7.0625 -4.1875 7.0625 -3 4 C-2.01 3.67 -1.02 3.34 0 3 C0 2.01 0 1.02 0 0 Z " fill="#EBF9F4" transform="translate(456,540)"/>
<path d="M0 0 C1.53760842 3.07521683 0.36599236 5.34675118 -0.4375 8.625 C-0.72496094 9.81351562 -1.01242187 11.00203125 -1.30859375 12.2265625 C-1.53675781 13.14179688 -1.76492188 14.05703125 -2 15 C-2.33 15 -2.66 15 -3 15 C-3.3152595 9.01006953 -2.68219822 5.36439644 0 0 Z " fill="#D2F1F3" transform="translate(314,494)"/>
<path d="M0 0 C0.66 0.33 1.32 0.66 2 1 C1.01 1.66 0.02 2.32 -1 3 C-0.67 3.66 -0.34 4.32 0 5 C-2.875 5.625 -2.875 5.625 -6 6 C-6.66 5.34 -7.32 4.68 -8 4 C-6.71349294 3.30289269 -5.42059335 2.61757124 -4.125 1.9375 C-3.40570313 1.55464844 -2.68640625 1.17179687 -1.9453125 0.77734375 C-1.30335938 0.52082031 -0.66140625 0.26429688 0 0 Z " fill="#207A80" transform="translate(386,440)"/>
<path d="M0 0 C0.33 0 0.66 0 1 0 C1.33776684 1.7491497 1.67003671 3.49936145 2 5.25 C2.185625 6.22453125 2.37125 7.1990625 2.5625 8.203125 C3 11 3 11 3 15 C2.34 15 1.68 15 1 15 C-0.09506492 11.71480525 -0.09960608 9.26336585 -0.0625 5.8125 C-0.05347656 4.72582031 -0.04445313 3.63914062 -0.03515625 2.51953125 C-0.02355469 1.68808594 -0.01195312 0.85664062 0 0 Z " fill="#D6F3F6" transform="translate(262,538)"/>
<path d="M0 0 C1.31534494 3.65857532 0.65468309 6.08026481 -0.4375 9.75 C-0.86869141 11.22726562 -0.86869141 11.22726562 -1.30859375 12.734375 C-1.53675781 13.48203125 -1.76492188 14.2296875 -2 15 C-2.33 15 -2.66 15 -3 15 C-2.88623383 12.87436897 -2.75864369 10.7494739 -2.625 8.625 C-2.55539062 7.44164062 -2.48578125 6.25828125 -2.4140625 5.0390625 C-2 2 -2 2 0 0 Z " fill="#D5F4F5" transform="translate(535,486)"/>
<path d="M0 0 C0.99773438 0.02320313 1.99546875 0.04640625 3.0234375 0.0703125 C4.52777344 0.09738281 4.52777344 0.09738281 6.0625 0.125 C6.83335937 0.14820313 7.60421875 0.17140625 8.3984375 0.1953125 C8.3984375 0.8553125 8.3984375 1.5153125 8.3984375 2.1953125 C-0.03013393 3.48102679 -0.03013393 3.48102679 -4.6015625 2.1953125 C-2.6015625 0.1953125 -2.6015625 0.1953125 0 0 Z " fill="#2D7F88" transform="translate(551.6015625,428.8046875)"/>
<path d="M0 0 C5.00890086 0.61512818 10.00632136 1.2717552 15 2 C15 2.33 15 2.66 15 3 C13.06257659 3.02703381 11.12504521 3.04641125 9.1875 3.0625 C8.10855469 3.07410156 7.02960937 3.08570313 5.91796875 3.09765625 C3 3 3 3 0 2 C0 1.34 0 0.68 0 0 Z " fill="#247A80" transform="translate(671,571)"/>
<path d="M0 0 C2.48862878 3.23521742 4.75421558 6.59260295 7 10 C4.625 9.8125 4.625 9.8125 2 9 C0.13992075 5.72271751 0 3.8340246 0 0 Z " fill="#C3E9EC" transform="translate(581,556)"/>
<path d="M0 0 C0.66 0.66 1.32 1.32 2 2 C0.02 4.64 -1.96 7.28 -4 10 C-4.33 9.01 -4.66 8.02 -5 7 C-4.01 6.67 -3.02 6.34 -2 6 C-2 5.34 -2 4.68 -2 4 C-2.99 4.33 -3.98 4.66 -5 5 C-5 4.34 -5 3.68 -5 3 C-3.35 2.67 -1.7 2.34 0 2 C0 1.34 0 0.68 0 0 Z " fill="#187A7F" transform="translate(521,549)"/>
<path d="M0 0 C3.3 0 6.6 0 10 0 C7 2 7 2 4 2 C4 2.66 4 3.32 4 4 C2.68 3.67 1.36 3.34 0 3 C0 2.01 0 1.02 0 0 Z " fill="#0A7477" transform="translate(604,521)"/>
<path d="M0 0 C1.64826111 2.96687001 2.44271087 5.65626525 3 9 C2.01 9 1.02 9 0 9 C0 8.34 0 7.68 0 7 C-0.99 7 -1.98 7 -3 7 C-1.125 2.25 -1.125 2.25 0 0 Z " fill="#1C7D8C" transform="translate(669,502)"/>
<path d="M0 0 C0 0.99 0 1.98 0 3 C-2.31 2.67 -4.62 2.34 -7 2 C-7 2.66 -7 3.32 -7 4 C-7.99 4.33 -8.98 4.66 -10 5 C-9.6875 3.0625 -9.6875 3.0625 -9 1 C-5.8035914 -0.06546953 -3.34252724 -0.07427838 0 0 Z " fill="#097278" transform="translate(377,482)"/>
<path d="M0 0 C-10.37357631 4.77676538 -10.37357631 4.77676538 -16 3 C-16 2.67 -16 2.34 -16 2 C-13.71022755 1.47090114 -11.41810812 0.95194981 -9.125 0.4375 C-7.84882812 0.14746094 -6.57265625 -0.14257812 -5.2578125 -0.44140625 C-2 -1 -2 -1 0 0 Z " fill="#D1F1F5" transform="translate(738,572)"/>
<path d="M0 0 C-1.17578125 1.984375 -1.17578125 1.984375 -3 4 C-5.48046875 4.390625 -5.48046875 4.390625 -8.1875 4.25 C-9.53908203 4.19585938 -9.53908203 4.19585938 -10.91796875 4.140625 C-11.60503906 4.09421875 -12.29210937 4.0478125 -13 4 C-10.56272708 2.37515139 -8.62713877 1.34310925 -5.9375 0.3125 C-5.24527344 0.04050781 -4.55304687 -0.23148438 -3.83984375 -0.51171875 C-2 -1 -2 -1 0 0 Z " fill="#CDEDF1" transform="translate(634,567)"/>
<path d="M0 0 C0.33 0.66 0.66 1.32 1 2 C0.2884375 2.804375 0.2884375 2.804375 -0.4375 3.625 C-2.28186076 6.42842836 -2.62456847 8.69620258 -3 12 C-4.32 11.01 -5.64 10.02 -7 9 C-4.69 6.03 -2.38 3.06 0 0 Z " fill="#2C8386" transform="translate(516,539)"/>
<path d="M0 0 C0 0.66 0 1.32 0 2 C-3.13498292 3.85776765 -5.37471432 4.20140476 -9 4 C-8.67 3.01 -8.34 2.02 -8 1 C-5.29120665 -0.35439668 -2.99066732 -0.06501451 0 0 Z " fill="#15747A" transform="translate(480,483)"/>
<path d="M0 0 C0.66 0 1.32 0 2 0 C1.43393721 4.69023454 0.81462495 9.34500026 0 14 C-0.33 14 -0.66 14 -1 14 C-1.02705729 12.22925083 -1.04642195 10.45838289 -1.0625 8.6875 C-1.07410156 7.70136719 -1.08570313 6.71523438 -1.09765625 5.69921875 C-1 3 -1 3 0 0 Z " fill="#2A7B82" transform="translate(341,480)"/>
<path d="M0 0 C1.98 0.99 1.98 0.99 4 2 C3.34 2 2.68 2 2 2 C1.67 6.29 1.34 10.58 1 15 C0.67 15 0.34 15 0 15 C0 10.05 0 5.1 0 0 Z " fill="#277C82" transform="translate(564,478)"/>
<path d="M0 0 C1 2 1 2 -0.0625 5.5 C-1.46306098 8.64798987 -1.82603484 8.92154512 -5.1875 10.4375 C-6.115625 10.623125 -7.04375 10.80875 -8 11 C-7.59007812 10.45730469 -7.18015625 9.91460938 -6.7578125 9.35546875 C-6.21898437 8.64003906 -5.68015625 7.92460938 -5.125 7.1875 C-4.59132813 6.47980469 -4.05765625 5.77210938 -3.5078125 5.04296875 C-2.29185219 3.39543703 -1.13583859 1.70375789 0 0 Z " fill="#C1E9EC" transform="translate(522,551)"/>
<path d="M0 0 C2.59482129 2.59482129 2.69990302 4.39883625 3 8 C2.34 8.66 1.68 9.32 1 10 C-0.83691257 6.21812119 -1.15837626 4.05431692 0 0 Z " fill="#137984" transform="translate(323,544)"/>
<path d="M0 0 C0.33 0 0.66 0 1 0 C1 3.3 1 6.6 1 10 C0.01 10 -0.98 10 -2 10 C-1.125 2.25 -1.125 2.25 0 0 Z " fill="#CEF2F2" transform="translate(333,528)"/>
<path d="M0 0 C1.73745313 2.65728125 2.00831972 3.89600355 1.75 7.125 C1 10 1 10 -1 12 C-1.14285714 3.42857143 -1.14285714 3.42857143 0 0 Z " fill="#BDEEF3" transform="translate(448,510)"/>
<path d="M0 0 C0.33 0 0.66 0 1 0 C1.25 3.3125 1.25 3.3125 1 7 C-1 8.9375 -1 8.9375 -3 10 C-2.49287967 6.28111761 -1.88391785 3.26545761 0 0 Z " fill="#268085" transform="translate(585,504)"/>
<path d="M0 0 C0.33 0 0.66 0 1 0 C1.08121924 1.60332791 1.13929134 3.20784026 1.1875 4.8125 C1.23970703 6.15248047 1.23970703 6.15248047 1.29296875 7.51953125 C0.95081002 10.41647515 0.24606427 11.22555028 -2 13 C-1.85769192 11.58297487 -1.71099254 10.1663904 -1.5625 8.75 C-1.48128906 7.96109375 -1.40007812 7.1721875 -1.31640625 6.359375 C-1.02365007 4.17635361 -0.57935581 2.1226818 0 0 Z " fill="#097175" transform="translate(424,491)"/>
<path d="M0 0 C-3.96 1.98 -7.92 3.96 -12 6 C-12 5.01 -12 4.02 -12 3 C-10.5682384 2.30062798 -9.12932968 1.61587282 -7.6875 0.9375 C-6.48673828 0.36322266 -6.48673828 0.36322266 -5.26171875 -0.22265625 C-3 -1 -3 -1 0 0 Z " fill="#DDF8FA" transform="translate(694,481)"/>
<path d="M0 0 C0.66 0.33 1.32 0.66 2 1 C1.67 2.32 1.34 3.64 1 5 C1.66 5 2.32 5 3 5 C2.67 6.32 2.34 7.64 2 9 C0.68 7.68 -0.64 6.36 -2 5 C-1.34 3.35 -0.68 1.7 0 0 Z " fill="#197D80" transform="translate(376,456)"/>
<path d="M0 0 C1.06546953 3.1964086 1.07427838 5.65747276 1 9 C-0.98 9.99 -0.98 9.99 -3 11 C-2.44894091 7.0507432 -1.61064629 3.65079826 0 0 Z " fill="#2A8085" transform="translate(331,437)"/>
<path d="M0 0 C0.66 0 1.32 0 2 0 C1.34 4.29 0.68 8.58 0 13 C-2.0903754 8.81924919 -2.22667078 8.41186737 -1.125 4.25 C-0.92132813 3.45078125 -0.71765625 2.6515625 -0.5078125 1.828125 C-0.34023438 1.22484375 -0.17265625 0.6215625 0 0 Z " fill="#287F87" transform="translate(351,429)"/>
<path d="M0 0 C0.8353125 0.37125 0.8353125 0.37125 1.6875 0.75 C-0.5625 2.8125 -0.5625 2.8125 -3.3125 4.75 C-5.625 4.5 -5.625 4.5 -7.3125 3.75 C-2.88173077 -0.31153846 -2.88173077 -0.31153846 0 0 Z " fill="#137981" transform="translate(513.3125,560.25)"/>
<path d="M0 0 C0.33 0.66 0.66 1.32 1 2 C1.66 2.33 2.32 2.66 3 3 C2.54625 3.433125 2.0925 3.86625 1.625 4.3125 C-0.20024334 6.10798342 -0.20024334 6.10798342 -2 9 C-2.6875 6.75 -2.6875 6.75 -3 4 C-1.5625 1.6875 -1.5625 1.6875 0 0 Z " fill="#DFF2EF" transform="translate(640,522)"/>
<path d="M0 0 C0.66 0 1.32 0 2 0 C1.67 1.32 1.34 2.64 1 4 C0.34 4 -0.32 4 -1 4 C-1.66 5.98 -2.32 7.96 -3 10 C-3.33 10 -3.66 10 -4 10 C-4 8.35 -4 6.7 -4 5 C-3.34 5 -2.68 5 -2 5 C-1.7834375 4.0409375 -1.7834375 4.0409375 -1.5625 3.0625 C-1 1 -1 1 0 0 Z " fill="#D1F0F2" transform="translate(659,518)"/>
<path d="M0 0 C1.65 0 3.3 0 5 0 C1.80009492 2.74277578 -1.00499382 4.6302836 -5 6 C-4.67 5.01 -4.34 4.02 -4 3 C-3.01 3 -2.02 3 -1 3 C-0.67 2.01 -0.34 1.02 0 0 Z " fill="#D2F2F5" transform="translate(619,513)"/>
<path d="M0 0 C2.56687367 3.8503105 1.83288724 5.58569763 1 10 C0.01 10 -0.98 10 -2 10 C-1.34 6.7 -0.68 3.4 0 0 Z " fill="#247878" transform="translate(323,461)"/>
<path d="M0 0 C0.33 0.99 0.66 1.98 1 3 C1.99 3.33 2.98 3.66 4 4 C3.67 4.66 3.34 5.32 3 6 C0.0625 5.625 0.0625 5.625 -3 5 C-3.33 4.34 -3.66 3.68 -4 3 C-2.68 2.67 -1.36 2.34 0 2 C0 1.34 0 0.68 0 0 Z " fill="#2A818A" transform="translate(383,462)"/>
<path d="M0 0 C0.66 0.66 1.32 1.32 2 2 C0.25 4.0625 0.25 4.0625 -2 6 C-4.25 5.75 -4.25 5.75 -6 5 C-4.02 3.35 -2.04 1.7 0 0 Z " fill="#D3F3F7" transform="translate(405,562)"/>
<path d="M0 0 C2.64752004 2.57784846 4.94432065 4.91648098 7 8 C5.35 8 3.7 8 2 8 C1.34 5.36 0.68 2.72 0 0 Z " fill="#C4E8EC" transform="translate(359,557)"/>
<path d="M0 0 C0.66 0 1.32 0 2 0 C2.125 2.375 2.125 2.375 2 5 C1.34 5.66 0.68 6.32 0 7 C-0.99 7 -1.98 7 -3 7 C-1.125 2.25 -1.125 2.25 0 0 Z " fill="#ACDAE2" transform="translate(707,553)"/>
<path d="M0 0 C1.95216435 3.90432869 2.50639991 6.72213252 3 11 C2.01 10.67 1.02 10.34 0 10 C0 6.7 0 3.4 0 0 Z " fill="#CFF0F4" transform="translate(659,550)"/>
<path d="M0 0 C0.33 0.66 0.66 1.32 1 2 C0.67 2.99 0.34 3.98 0 5 C-0.66 5 -1.32 5 -2 5 C-2 5.66 -2 6.32 -2 7 C-3.65 7 -5.3 7 -7 7 C-4.66666667 4.66666667 -2.33333333 2.33333333 0 0 Z " fill="#227B85" transform="translate(398,551)"/>
<path d="M0 0 C0.33 0 0.66 0 1 0 C1.33 4.62 1.66 9.24 2 14 C-1 10 -1 10 -1.07421875 7.421875 C-0.94660156 6.54015625 -0.81898438 5.6584375 -0.6875 4.75 C-0.56761719 3.85796875 -0.44773437 2.9659375 -0.32421875 2.046875 C-0.21722656 1.37140625 -0.11023438 0.6959375 0 0 Z " fill="#E5F9FB" transform="translate(473,542)"/>
<path d="M0 0 C0.66 0.99 1.32 1.98 2 3 C2.66 3 3.32 3 4 3 C3.67 4.65 3.34 6.3 3 8 C1 6.6875 1 6.6875 -1 5 C-1 2 -1 2 0 0 Z " fill="#197E89" transform="translate(404,542)"/>
<path d="M0 0 C2 2 2 2 2.1875 5 C2 8 2 8 1 10 C0.34 10 -0.32 10 -1 10 C-0.67 6.7 -0.34 3.4 0 0 Z " fill="#207C7E" transform="translate(356,514)"/>
<path d="M0 0 C0.66 0 1.32 0 2 0 C1.34 4.62 0.68 9.24 0 14 C-0.33 14 -0.66 14 -1 14 C-1.33 11.36 -1.66 8.72 -2 6 C-1.34 6 -0.68 6 0 6 C0 4.02 0 2.04 0 0 Z " fill="#D0F4F5" transform="translate(355,512)"/>
<path d="M0 0 C0.33 0.99 0.66 1.98 1 3 C-0.75 5.0625 -0.75 5.0625 -3 7 C-5.25 6.75 -5.25 6.75 -7 6 C-3.25 3 -3.25 3 -1 3 C-0.67 2.01 -0.34 1.02 0 0 Z " fill="#2B7F8B" transform="translate(625,511)"/>
<path d="M0 0 C0.99 0 1.98 0 3 0 C3 0.99 3 1.98 3 3 C2.360625 3.268125 1.72125 3.53625 1.0625 3.8125 C-1.33131686 4.88667752 -1.33131686 4.88667752 -2 8 C-2.66 8 -3.32 8 -4 8 C-2.87548273 5.0280615 -1.77706209 2.66559313 0 0 Z " fill="#CBF2F4" transform="translate(473,501)"/>
<path d="M0 0 C3.57104439 1.87949705 5.54744301 3.17053157 7 7 C6.01 7.33 5.02 7.66 4 8 C2.3372974 5.32521756 1.00016187 3.0004856 0 0 Z " fill="#1E767A" transform="translate(497,486)"/>
<path d="M0 0 C1.9375 0.375 1.9375 0.375 4 1 C4.33 1.66 4.66 2.32 5 3 C3.35 3.66 1.7 4.32 0 5 C-0.66 4.34 -1.32 3.68 -2 3 C-1.34 2.01 -0.68 1.02 0 0 Z " fill="#157782" transform="translate(384,483)"/>
<path d="M0 0 C3.51005335 1.6380249 6.45543849 3.03134491 9 6 C8.67 6.99 8.34 7.98 8 9 C8 8.34 8 7.68 8 7 C7.01 6.67 6.02 6.34 5 6 C4.67 5.34 4.34 4.68 4 4 C1.98330173 2.86649466 1.98330173 2.86649466 0 2 C0 1.34 0 0.68 0 0 Z " fill="#147074" transform="translate(637,478)"/>
<path d="M0 0 C2 3 2 3 1.625 6.1875 C1.41875 7.115625 1.2125 8.04375 1 9 C0.34 9 -0.32 9 -1 9 C-1.09765625 2.84765625 -1.09765625 2.84765625 -1 1 C-0.67 0.67 -0.34 0.34 0 0 Z " fill="#0B7276" transform="translate(374,450)"/>
<path d="M0 0 C0.33 0 0.66 0 1 0 C1 3.96 1 7.92 1 12 C0.01 12 -0.98 12 -2 12 C-1 3.42857143 -1 3.42857143 0 0 Z " fill="#257A82" transform="translate(718,432)"/>
<path d="M0 0 C0.66 0.33 1.32 0.66 2 1 C0.35 2.98 -1.3 4.96 -3 7 C-5 6 -5 6 -6 4 C-4.02 2.68 -2.04 1.36 0 0 Z " fill="#D7EEF0" transform="translate(640,561)"/>
<path d="M0 0 C1.4540625 0.0309375 1.4540625 0.0309375 2.9375 0.0625 C1.2875 1.7125 -0.3625 3.3625 -2.0625 5.0625 C-2.7225 3.7425 -3.3825 2.4225 -4.0625 1.0625 C-3.0625 0.0625 -3.0625 0.0625 0 0 Z " fill="#2A8088" transform="translate(702.0625,499.9375)"/>
<path d="M0 0 C0.33 0 0.66 0 1 0 C1.66 2.97 2.32 5.94 3 9 C1.68 8.67 0.36 8.34 -1 8 C-0.67 5.36 -0.34 2.72 0 0 Z " fill="#CCEAEE" transform="translate(533,565)"/>
<path d="M0 0 C2.18975773 3.28463659 2.99806563 6.20696275 4 10 C3.01 9.67 2.02 9.34 1 9 C0.67 6.03 0.34 3.06 0 0 Z " fill="#C6EEEE" transform="translate(709,562)"/>
<path d="M0 0 C2.12508244 3.18762365 2.5020163 5.26512223 3 9 C2.01 9.33 1.02 9.66 0 10 C0 6.7 0 3.4 0 0 Z " fill="#127478" transform="translate(534,560)"/>
<path d="M0 0 C0 1.65 0 3.3 0 5 C-1.32 5 -2.64 5 -4 5 C-4.33 4.01 -4.66 3.02 -5 2 C-2 0 -2 0 0 0 Z " fill="#197F81" transform="translate(640,544)"/>
<path d="M0 0 C0.66 0 1.32 0 2 0 C0.90931332 3.77545388 0.0916909 6.47043472 -3 9 C-2.5020163 5.26512223 -2.12508244 3.18762365 0 0 Z " fill="#D4F6F7" transform="translate(410,528)"/>
<path d="M0 0 C1.65 0 3.3 0 5 0 C5 1.66666667 5 3.33333333 5 5 C2.525 4.01 2.525 4.01 0 3 C0 2.01 0 1.02 0 0 Z " fill="#027B8D" transform="translate(601,527)"/>
<path d="M0 0 C2 3.75 2 3.75 2 6 C0.02 6.33 -1.96 6.66 -4 7 C-3.34 5.35 -2.68 3.7 -2 2 C-1.34 2 -0.68 2 0 2 C0 1.34 0 0.68 0 0 Z " fill="#228188" transform="translate(660,520)"/>
<path d="M0 0 C0.66 0.33 1.32 0.66 2 1 C1.67 4.3 1.34 7.6 1 11 C0.67 11 0.34 11 0 11 C-1.28571429 3.57142857 -1.28571429 3.57142857 0 0 Z " fill="#D1EDEF" transform="translate(707,506)"/>
<path d="M0 0 C1.9375 0.3125 1.9375 0.3125 4 1 C4.33 1.99 4.66 2.98 5 4 C3.68 4.33 2.36 4.66 1 5 C0.67 3.35 0.34 1.7 0 0 Z " fill="#15797D" transform="translate(665,564)"/>
<path d="M0 0 C0.99 0 1.98 0 3 0 C3 0.99 3 1.98 3 3 C2.01 3 1.02 3 0 3 C-0.33 3.99 -0.66 4.98 -1 6 C-1.625 4.125 -1.625 4.125 -2 2 C-1.34 1.34 -0.68 0.68 0 0 Z " fill="#0A7478" transform="translate(519,535)"/>
<path d="M0 0 C0.88492145 2.47778006 1.11637742 3.66056586 0.25 6.1875 C-1 8 -1 8 -4 9 C-2.80100302 5.9168649 -1.52299523 2.93720508 0 0 Z " fill="#1E8084" transform="translate(411,530)"/>
<path d="M0 0 C3 1 3 1 4.3125 3.3125 C5 6 5 6 3 10 C2.01 6.7 1.02 3.4 0 0 Z " fill="#D0EFF1" transform="translate(646,484)"/>
<path d="M0 0 C3.96 0 7.92 0 12 0 C12 0.33 12 0.66 12 1 C11.07767578 1.09087891 11.07767578 1.09087891 10.13671875 1.18359375 C9.32847656 1.26738281 8.52023437 1.35117187 7.6875 1.4375 C6.88699219 1.51871094 6.08648438 1.59992188 5.26171875 1.68359375 C2.83912821 1.95265693 2.83912821 1.95265693 0 3 C0 2.01 0 1.02 0 0 Z " fill="#C5EAEF" transform="translate(520,461)"/>
</svg>
